<?xml version="1.0" standalone="no"?>
<!DOCTYPE svg PUBLIC "-//W3C//DTD SVG 1.1//EN" "http://www.w3.org/Graphics/SVG/1.1/DTD/svg11.dtd" >
<svg xmlns="http://www.w3.org/2000/svg" xmlns:xlink="http://www.w3.org/1999/xlink" version="1.1">
<metadata>
Created by FontForge 20170731 at Mon Aug  7 19:37:03 2023
 By Aleksey,,,
Copyright (c) 2003 Fontworks Japan, Inc. All Rights Reserved.
</metadata>
<defs>
<font id="chiarocustomRegular" horiz-adv-x="1269" >
  <font-face 
    font-family="chiaro custom"
    font-weight="500"
    font-stretch="normal"
    units-per-em="2048"
    panose-1="0 0 0 0 0 0 0 0 0 0"
    ascent="1802"
    descent="-246"
    x-height="989"
    cap-height="1513"
    bbox="-207 -479 1911 2001"
    underline-thickness="102"
    underline-position="-307"
    unicode-range="U+0020-017E"
  />
<missing-glyph horiz-adv-x="935" 
d="M41 1382h854v-1382h-854v1382zM139 98h656v1186h-656v-1186z" />
    <glyph glyph-name=".notdef" horiz-adv-x="935" 
d="M41 1382h854v-1382h-854v1382zM139 98h656v1186h-656v-1186z" />
    <glyph glyph-name=".notdef" horiz-adv-x="935" 
d="M41 1382h854v-1382h-854v1382zM139 98h656v1186h-656v-1186z" />
    <glyph glyph-name=".null" horiz-adv-x="0" 
 />
    <glyph glyph-name="nonmarkingreturn" horiz-adv-x="682" 
 />
    <glyph glyph-name="space" unicode=" " horiz-adv-x="634" 
 />
    <glyph glyph-name="exclam" unicode="!" horiz-adv-x="778" 
d="M682 1497l-311 53l-74 -1106l82 -12zM438 129q0 66 -43 111t-106 45t-106.5 -45t-43.5 -111t43.5 -111t106.5 -45t106 45t43 111z" />
    <glyph glyph-name="quotedbl" unicode="&#x22;" horiz-adv-x="778" 
d="M662 1548h-218l68 -559h70zM346 1548h-217l80 -559h70z" />
    <glyph glyph-name="numbersign" unicode="#" 
d="M1169 958v224h-211l41 331h-137l-41 -331h-248l41 331h-137l-41 -331h-219v-224h191l-41 -333h-224v-224h197l-49 -401h135l49 401h250l-49 -401h135l49 401h236v224h-207l41 333h239zM793 958l-41 -333h-248l41 333h248z" />
    <glyph glyph-name="dollar" unicode="$" 
d="M1186 399q0 173 -119.5 293t-372.5 226q-1 0 -2 1t-2 1v532q185 -14 357 -172l45 158q-185 94 -402 108v121h-110v-121q-222 -12 -342.5 -121.5t-120.5 -277.5q0 -78 16.5 -136.5t59.5 -116t123.5 -108t203.5 -98.5q7 -3 19.5 -7.5t22.5 -8.5t18 -8v-594h-2
q-114 0 -234 53.5t-190 142.5l-62 -157q103 -60 232.5 -100.5t255.5 -43.5v-207h110v211q235 22 365.5 136t130.5 294zM580 969q-51 24 -86.5 44.5t-59 42t-37 39t-20.5 43t-8.5 46.5t-1.5 57q0 81 51 138t162 71v-481zM918 322q0 -95 -57.5 -158.5t-170.5 -83.5v532
q128 -67 178 -135t50 -155z" />
    <glyph glyph-name="percent" unicode="%" horiz-adv-x="2048" 
d="M915 1122q0 89 -21.5 163.5t-65.5 134.5t-119 94t-174 34q-98 0 -175 -38.5t-121 -101.5t-66.5 -136t-22.5 -150q0 -93 22.5 -170t67.5 -136.5t120.5 -92.5t174.5 -33q98 0 174 38.5t119.5 102t65 137.5t21.5 154zM1628 1513h-149l-1067 -1513h149zM1911 395
q0 89 -21.5 164t-65.5 134.5t-119.5 93.5t-174.5 34q-98 0 -175 -38.5t-121 -101.5t-66.5 -136t-22.5 -150q0 -193 95.5 -311.5t289.5 -118.5q98 0 174 38t120 101.5t65.5 137t21.5 153.5zM686 1112q0 -157 -36.5 -253.5t-114.5 -96.5q-40 0 -71 28t-49 77t-27 111.5
t-9 137.5q0 77 8 140.5t25 117t48.5 83.5t74.5 30q151 0 151 -375zM1681 385q0 -157 -36.5 -253.5t-114.5 -96.5q-40 0 -71 28t-49 77t-27 111.5t-9 137.5q0 77 8 140.5t25 117t48.5 83.5t74.5 30q151 0 151 -375z" />
    <glyph glyph-name="ampersand" unicode="&#x26;" horiz-adv-x="1605" 
d="M1556 989h-153q-25 -103 -122.5 -283t-205.5 -303q-91 74 -208 197.5t-181 214.5q207 92 295 177.5t88 215.5q0 151 -105 245.5t-313 94.5q-95 0 -174 -29.5t-129.5 -79t-78 -112.5t-27.5 -131q0 -200 164 -418q-168 -66 -252 -173t-84 -240q0 -191 126.5 -295.5
t372.5 -104.5q95 0 227 62t191 129q72 -59 171 -119.5t181 -97.5l185 225q-199 66 -371 182q118 139 225 316.5t178 326.5zM834 1219q0 -216 -199 -328q-41 62 -63.5 100t-45 102.5t-22.5 123.5q0 94 49 161.5t121 67.5q73 0 116.5 -62.5t43.5 -164.5zM897 231
q-136 -102 -303 -102q-110 0 -185 74t-75 219q0 69 34.5 149.5t98.5 122.5q81 -113 207 -248.5t223 -214.5z" />
    <glyph glyph-name="quotesingle" unicode="'" horiz-adv-x="634" 
d="M430 1548h-217l68 -559h69z" />
    <glyph glyph-name="parenleft" unicode="(" horiz-adv-x="778" 
d="M696 -289q-113 144 -194.5 413.5t-81.5 559.5q0 291 81.5 560.5t194.5 412.5l-41 41q-189 -154 -315.5 -429t-126.5 -585q0 -315 125.5 -586t316.5 -426z" />
    <glyph glyph-name="parenright" unicode=")" horiz-adv-x="778" 
d="M567 684q0 310 -126.5 585t-315.5 429l-41 -41q113 -143 194.5 -412.5t81.5 -560.5q0 -290 -81.5 -559t-194.5 -412l41 -41q191 155 316.5 426t125.5 586z" />
    <glyph glyph-name="asterisk" unicode="*" horiz-adv-x="1024" 
d="M877 1214l-64 193l-254 -145l62 286h-203l57 -288l-254 145l-59 -193l289 -32l-218 -193l164 -117l121 265l121 -269l162 121l-215 197z" />
    <glyph glyph-name="plus" unicode="+" 
d="M1147 436v135h-428v418h-141v-418h-439v-135h439v-436h141v436h428z" />
    <glyph glyph-name="comma" unicode="," horiz-adv-x="634" 
d="M483 76q0 114 -49 166.5t-125 52.5q-63 0 -106 -45t-43 -111t43 -110.5t106 -44.5q32 0 66.5 15.5t46.5 43.5q-8 -68 -55.5 -132.5t-130.5 -98.5l30 -39q100 40 158.5 125.5t58.5 177.5z" />
    <glyph glyph-name="hyphen" unicode="-" horiz-adv-x="819" 
d="M717 432v148h-602v-148h602z" />
    <glyph glyph-name="period" unicode="." horiz-adv-x="634" 
d="M477 147q0 66 -43 111t-106 45t-106.5 -45t-43.5 -111t43.5 -110.5t106.5 -44.5t106 44.5t43 110.5z" />
    <glyph glyph-name="slash" unicode="/" horiz-adv-x="778" 
d="M768 1665h-133l-627 -1929h135z" />
    <glyph glyph-name="zero" unicode="0" 
d="M1198 735q0 164 -30 299.5t-82 229.5t-123.5 159t-154 95t-173.5 30q-116 0 -215 -46t-178 -138.5t-124.5 -248.5t-45.5 -359q0 -164 30.5 -297.5t83 -224t125 -152t153.5 -89.5t171 -28q91 0 171.5 25.5t153 84.5t125 146.5t83 219t30.5 294.5zM920 735
q0 -181 -32 -330.5t-98 -244t-155 -94.5q-88 0 -155.5 99.5t-100.5 254.5t-33 336q0 182 32 336t99.5 254t157.5 100t156.5 -105.5t97.5 -264t31 -341.5z" />
    <glyph glyph-name="one" unicode="1" 
d="M791 0v1548l-447 -155v-105l182 60v-1348h265z" />
    <glyph glyph-name="two" unicode="2" 
d="M1184 213h-815q22 20 381 336q111 97 173 158t117.5 134t78 143.5t22.5 154.5q0 88 -28.5 161.5t-84.5 129.5t-147 87t-209 31q-171 0 -302.5 -85t-205.5 -242l74 -39q62 112 154.5 180t191.5 68q132 0 204 -71.5t72 -209.5q0 -137 -57.5 -253.5t-204.5 -272.5
q-233 -248 -465 -476v-147h1010z" />
    <glyph glyph-name="three" unicode="3" 
d="M1176 508q0 157 -127 247.5t-338 90.5q-64 0 -97 -4q66 13 123.5 30.5t122.5 48.5t110.5 69.5t76 96.5t30.5 127q0 152 -106 243t-320 91q-343 0 -485 -266l61 -27q47 71 141 123t183 52q123 0 191.5 -60t68.5 -172q0 -115 -117 -204.5t-313 -151.5l29 -84q75 14 127 14
q152 0 256 -73t104 -193q0 -122 -63.5 -222t-175.5 -169t-255.5 -113.5t-314.5 -64.5l25 -80q169 10 320 38t289 80.5t237.5 125t158 177t58.5 230.5z" />
    <glyph glyph-name="four" unicode="4" 
d="M1235 379v192h-205v942h-229l-738 -946v-188h719v-379h248v379h205zM782 571h-604l604 770v-770z" />
    <glyph glyph-name="five" unicode="5" 
d="M1135 543q0 135 -98.5 237.5t-275.5 157.5t-407 55l84 285h578l55 215h-674l-196 -672q663 0 663 -319q0 -215 -199.5 -361.5t-592.5 -208.5l24 -73q516 41 777.5 212.5t261.5 471.5z" />
    <glyph glyph-name="six" unicode="6" 
d="M1165 442q0 94 -30 176.5t-86 147t-145.5 102t-201.5 37.5q-104 0 -197.5 -32t-142.5 -85q12 192 123.5 354t288 264t389.5 134l-22 82q-496 -47 -769.5 -308.5t-273.5 -672.5q0 -170 46 -303t123.5 -212.5t172.5 -120t201 -40.5q149 0 266.5 55.5t187.5 165t70 256.5z
M911 430q0 -174 -80 -275.5t-188 -101.5q-120 0 -202.5 161.5t-82.5 457.5q24 47 109 85t160 38q115 0 199.5 -108.5t84.5 -256.5z" />
    <glyph glyph-name="seven" unicode="7" 
d="M1194 1493h-1038l-47 -236h849l-555 -1257h136z" />
    <glyph glyph-name="eight" unicode="8" 
d="M1180 397q0 138 -93.5 249.5t-281.5 209.5q150 47 226.5 130t76.5 196q0 72 -30.5 137t-87.5 116.5t-149 82t-206 30.5q-117 0 -211.5 -34t-152 -89.5t-87.5 -121.5t-30 -136q0 -223 282 -366q-143 -60 -244.5 -174t-101.5 -244q0 -201 139 -303.5t406 -102.5
q253 0 399 117t146 303zM870 1194q0 -90 -49.5 -162.5t-140.5 -111.5q-136 63 -207.5 128.5t-71.5 145.5q0 116 66 191t168 75q112 0 173.5 -75.5t61.5 -190.5zM915 360q0 -72 -30 -137.5t-95 -111t-151 -45.5q-150 0 -230.5 88.5t-80.5 230.5q0 92 66 197t147 157
q170 -73 272 -177.5t102 -201.5z" />
    <glyph glyph-name="nine" unicode="9" 
d="M1163 870q0 173 -43 305.5t-118.5 212.5t-171.5 120t-209 40q-235 0 -370.5 -127t-135.5 -352q0 -92 28 -174.5t82 -147.5t140 -103t194 -38q103 0 198 32.5t146 84.5q-10 -152 -76 -282t-174 -223.5t-249.5 -156t-305.5 -88.5l23 -82q247 18 443.5 96t328 205t201 299.5
t69.5 378.5zM901 840q-22 -45 -107 -84t-159 -39q-117 0 -193.5 105.5t-76.5 258.5q0 178 71 277.5t182 99.5q117 0 200 -171t83 -447z" />
    <glyph glyph-name="colon" unicode=":" horiz-adv-x="634" 
d="M481 870q0 66 -43 111t-106 45t-106.5 -45t-43.5 -111t43.5 -111.5t106.5 -45.5t106 45.5t43 111.5zM481 147q0 66 -43 111t-106 45t-106.5 -45t-43.5 -111t43.5 -110.5t106.5 -44.5t106 44.5t43 110.5z" />
    <glyph glyph-name="semicolon" unicode=";" horiz-adv-x="634" 
d="M481 870q0 66 -43 111t-106 45t-106.5 -45t-43.5 -111t43.5 -111.5t106.5 -45.5t106 45.5t43 111.5zM504 76q0 114 -49 166.5t-125 52.5q-63 0 -106.5 -45t-43.5 -111t43.5 -110.5t106.5 -44.5q32 0 66 15.5t46 43.5q-8 -68 -55.5 -132.5t-130.5 -98.5l31 -39
q100 40 158.5 125.5t58.5 177.5z" />
    <glyph glyph-name="less" unicode="&#x3c;" 
d="M965 20l-422 474l422 473l-52 57l-632 -530l632 -529z" />
    <glyph glyph-name="equal" unicode="=" 
d="M1135 602v129h-983v-129h983zM1135 293v129h-983v-129h983z" />
    <glyph glyph-name="greater" unicode="&#x3e;" 
d="M993 494l-633 530l-51 -57l422 -473l-422 -474l51 -55z" />
    <glyph glyph-name="question" unicode="?" 
d="M1157 1122q0 187 -141 306.5t-363 119.5q-183 0 -324 -81t-212 -224l125 -133q98 344 376 344q136 0 218 -88t82 -242q0 -150 -95.5 -252.5t-281.5 -138.5l65 -293h68v187q215 38 349 168.5t134 326.5zM791 129q0 66 -43.5 111t-106.5 45t-106 -45t-43 -111t43 -111
t106 -45t106.5 45t43.5 111z" />
    <glyph glyph-name="at" unicode="@" horiz-adv-x="1751" 
d="M1679 825q0 112 -31 216.5t-97 196.5t-159.5 161t-228 109t-293.5 40q-169 0 -318.5 -63t-254 -170t-165 -252.5t-60.5 -306.5q0 -164 60.5 -310t165 -251.5t252.5 -167.5t316 -62q266 0 469 101.5t330 289.5l-47 39q-148 -153 -320 -223t-421 -70q-117 0 -228 43.5
t-199.5 122.5t-142 202t-53.5 271q0 146 48.5 270.5t131.5 209.5t195.5 132.5t240.5 47.5q281 0 454 -164t173 -436q0 -183 -59 -274t-154 -91q-43 0 -68.5 30.5t-25.5 82.5q0 23 2 33l82 598h-195l-6 -35q-26 22 -78 38.5t-116 16.5q-128 0 -225.5 -69t-148 -187.5
t-50.5 -267.5q0 -162 80.5 -244t232.5 -82q86 0 150 32.5t102 76.5q18 -52 72 -82.5t139 -30.5q110 0 196.5 37t141 103t82.5 152t28 187zM1061 1044l-66 -499q-26 -40 -78 -68t-98 -28q-76 0 -123 53t-47 166q0 199 73.5 321.5t188.5 122.5q42 0 86 -20t64 -48z" />
    <glyph glyph-name="A" unicode="A" horiz-adv-x="1466" 
d="M1501 0l-688 1563l-199 -50q-363 -862 -649 -1513h146q101 262 221 537h624l211 -537h334zM924 629h-557q30 76 140 345t138 339z" />
    <glyph glyph-name="B" unicode="B" horiz-adv-x="1335" 
d="M1223 426q0 171 -119 288t-297 117q121 28 187.5 124.5t66.5 213.5q0 153 -118 248.5t-298 95.5h-473v-1513h573q94 0 181 30.5t152.5 85t105 135.5t39.5 175zM788 1155q0 -128 -72 -201t-184 -73h-79v544h104q110 0 170.5 -66.5t60.5 -203.5zM948 432
q0 -161 -94.5 -251.5t-237.5 -90.5h-163v707h151q155 0 249.5 -96.5t94.5 -268.5z" />
    <glyph glyph-name="C" unicode="C" horiz-adv-x="1587" 
d="M1493 78l-20 170q-110 -93 -221.5 -144t-247.5 -51t-241.5 43.5t-183 134.5t-118.5 240.5t-41 351.5q0 138 29 246.5t79.5 180.5t121.5 119.5t151.5 68t173.5 20.5q139 0 243.5 -37.5t200.5 -126.5l45 158q-257 96 -497 96q-128 0 -249 -30t-230 -94t-190.5 -156
t-129 -225t-47.5 -291q0 -167 42.5 -299t119 -223t188 -151t245.5 -87t296 -27q120 0 263 35.5t218 77.5z" />
    <glyph glyph-name="D" unicode="D" horiz-adv-x="1654" 
d="M1534 758q0 162 -50 292.5t-132.5 215.5t-195.5 142t-232.5 81t-249.5 24h-502v-1513h518q139 0 259 23.5t229.5 79t187 140.5t123 216.5t45.5 298.5zM1247 764q0 -113 -19 -207.5t-51.5 -163t-80.5 -121.5t-102 -87t-119 -56t-128.5 -30.5t-134.5 -8.5h-159v1333h129
q105 0 198 -20t180 -69t149.5 -122.5t100 -188t37.5 -259.5z" />
    <glyph glyph-name="E" unicode="E" horiz-adv-x="1191" 
d="M1124 0v147q-269 -41 -671 -41v656q232 0 465 -21v142q-240 -21 -465 -21v555q384 0 587 -31v138q-139 -4 -356 -7t-364 -3l-148 -1v-1513h952z" />
    <glyph glyph-name="F" unicode="F" horiz-adv-x="1091" 
d="M1040 1386v138q-139 -4 -356 -7t-364 -3l-148 -1v-1513h281v766q232 0 465 -21v134q-240 -21 -465 -21v559q384 0 587 -31z" />
    <glyph glyph-name="G" unicode="G" horiz-adv-x="1658" 
d="M1528 78v670q-267 0 -533 20v-121q113 10 254 10v-557q-107 -47 -256 -47q-136 0 -241 43.5t-182.5 135t-118.5 240.5t-41 351q0 138 29.5 246.5t80 180.5t122 119.5t152 68t173.5 20.5q139 0 243.5 -37.5t200.5 -126.5l45 158q-257 96 -498 96q-128 0 -248 -30
t-227.5 -94t-187.5 -156t-127 -224.5t-47 -291.5q0 -167 41 -299t116 -223t185 -151t243 -87t295 -27q128 0 280 32t247 81z" />
    <glyph glyph-name="H" unicode="H" horiz-adv-x="1525" 
d="M1354 0v1513h-281v-675h-620v675h-281v-1513h281v729h620v-729h281z" />
    <glyph glyph-name="I" unicode="I" horiz-adv-x="628" 
d="M457 0v1513h-285v-1513h285z" />
    <glyph glyph-name="J" unicode="J" horiz-adv-x="782" 
d="M612 377v1136h-280v-1079q0 -306 -45 -450q-42 -135 -121.5 -202t-173.5 -67q-88 0 -176 58l-23 -148q55 -6 117 -6q74 0 142.5 10.5t140 35.5t132 63.5t114.5 99t91.5 137.5t59.5 182t22 230z" />
    <glyph glyph-name="K" unicode="K" horiz-adv-x="1363" 
d="M1399 0q-433 499 -768 893q115 106 355.5 316.5t352.5 303.5h-178q-91 -88 -322 -295.5t-386 -340.5v636h-281v-1513h277v735q285 -335 608 -735h342z" />
    <glyph glyph-name="L" unicode="L" horiz-adv-x="1193" 
d="M1124 0v147q-269 -41 -661 -41v1407h-291v-1513h952z" />
    <glyph glyph-name="M" unicode="M" horiz-adv-x="1865" 
d="M1696 0v1513h-293q-169 -431 -488 -1185q-76 196 -231.5 611.5t-224.5 608.5l-287 -35q2 -242 2 -505q0 -270 -2 -387q-3 -349 -20 -621h151q-18 189 -22 625v170l2 497q158 -376 493 -1272h129q137 337 510 1215v-1235h281z" />
    <glyph glyph-name="N" unicode="N" horiz-adv-x="1536" 
d="M1376 1513h-151q12 -120 20 -624v-195v-254q-347 491 -796 1106l-273 -33q2 -244 2 -507q0 -270 -2 -385q-7 -411 -20 -621h151q-16 166 -20 625v301v391q118 -158 464.5 -640.5t481.5 -676.5h123v506v387q3 348 20 620z" />
    <glyph glyph-name="O" unicode="O" horiz-adv-x="1814" 
d="M1694 754q0 240 -88 417.5t-267 277t-432 99.5q-251 0 -429.5 -99.5t-267.5 -277t-89 -417.5q0 -364 205 -576.5t581 -212.5q254 0 432.5 98.5t266.5 274.5t88 416zM1405 692q0 -315 -133 -477t-365 -162q-146 0 -260 100.5t-175.5 274t-61.5 387.5q0 314 134 478.5
t363 164.5q147 0 261.5 -102t175.5 -275.5t61 -388.5z" />
    <glyph glyph-name="P" unicode="P" horiz-adv-x="1310" 
d="M1219 1069q0 108 -41 194.5t-110.5 140t-156.5 81.5t-184 28h-555v-1513h281v627h274q77 0 148 17t134 53t109.5 87.5t73.5 124.5t27 160zM928 1069q0 -162 -95 -255t-237 -93h-143v698h143q142 0 237 -94t95 -256z" />
    <glyph glyph-name="Q" unicode="Q" horiz-adv-x="1814" 
d="M1774 -309q-148 26 -270 92.5t-199 161.5q-30 35 -52 75q215 84 328 274.5t113 459.5q0 240 -88 417.5t-267 277t-432 99.5q-251 0 -429.5 -99.5t-267.5 -277t-89 -417.5q0 -364 205 -576.5t581 -212.5h56q11 -19 50 -61.5t66 -65.5q114 -101 274.5 -147.5t409.5 -46.5z
M1405 692q0 -315 -133 -477t-365 -162q-146 0 -260 100.5t-175.5 274t-61.5 387.5q0 314 134 478.5t363 164.5q147 0 261.5 -102t175.5 -275.5t61 -388.5z" />
    <glyph glyph-name="R" unicode="R" horiz-adv-x="1376" 
d="M1423 -63q-125 58 -236 152.5t-188 197.5q-129 172 -211 393q201 4 316 116.5t115 293.5q0 87 -27 158.5t-73 120t-109 81.5t-133.5 48t-147.5 15h-557v-1513h281v668h59q33 -104 103.5 -227.5t164.5 -229.5q99 -110 259.5 -197.5t357.5 -138.5zM928 1090
q0 -160 -93.5 -244t-238.5 -84h-143v657h143q145 0 238.5 -84.5t93.5 -244.5z" />
    <glyph glyph-name="S" unicode="S" horiz-adv-x="1339" 
d="M1239 399q0 178 -121.5 297t-394.5 219q-121 44 -193 79.5t-110.5 74.5t-50 76.5t-11.5 95.5q0 44 14.5 80.5t47 67.5t93.5 48t146 17q227 0 416 -174l45 158q-218 110 -483 110q-269 0 -401 -109.5t-132 -291.5q0 -154 101 -266.5t344 -198.5q230 -82 324 -167t94 -193
q0 -118 -88 -185t-273 -67q-139 0 -266.5 52.5t-198.5 143.5l-61 -157q109 -61 253 -102.5t288 -41.5q307 0 462.5 115.5t155.5 318.5z" />
    <glyph glyph-name="T" unicode="T" horiz-adv-x="1284" 
d="M1233 1382v138q-224 -9 -580 -9q-379 0 -585 9v-138q68 12 196.5 21.5t245.5 9.5v-1413h281v1413q271 0 442 -31z" />
    <glyph glyph-name="U" unicode="U" horiz-adv-x="1495" 
d="M1348 1513h-152q21 -215 21 -608v-389q0 -210 -102.5 -323t-287.5 -113q-181 0 -277.5 112t-96.5 324v997h-281v-997q0 -90 17 -166t62.5 -149t116 -123.5t185.5 -81.5t264 -31q115 0 205 32.5t146.5 85.5t93 126.5t51 148.5t14.5 158v393q3 311 21 604z" />
    <glyph glyph-name="V" unicode="V" horiz-adv-x="1308" 
d="M1298 1513h-143q-140 -454 -391 -1165l-445 1165h-337l634 -1513h136q56 154 267.5 743.5t278.5 769.5z" />
    <glyph glyph-name="W" unicode="W" horiz-adv-x="1880" 
d="M1882 1513h-141q-81 -341 -287 -1085l-326 1081l-245 -36l-267 -1041l-290 1081h-338l479 -1513h137l324 1202l379 -1202h137q12 44 438 1513z" />
    <glyph glyph-name="X" unicode="X" horiz-adv-x="1251" 
d="M1264 0l-519 840q183 287 447 673h-160q-153 -272 -354 -567l-320 567h-338l472 -778q-60 -95 -232.5 -343.5t-275.5 -391.5h159q204 319 416 623l363 -623h342z" />
    <glyph glyph-name="Y" unicode="Y" horiz-adv-x="1146" 
d="M1159 1513h-147q-50 -119 -165 -364t-183 -377l-349 741h-329l463 -878v-635h280v649q186 396 430 864z" />
    <glyph glyph-name="Z" unicode="Z" horiz-adv-x="1316" 
d="M1237 1513q-853 3 -1108 11v-138q253 31 731 31l-809 -1417h1166v156q-248 -50 -773 -50z" />
    <glyph glyph-name="bracketleft" unicode="[" horiz-adv-x="778" 
d="M696 -283v90h-211v1756h211v88h-403v-1932z" />
    <glyph glyph-name="backslash" unicode="\" horiz-adv-x="778" 
d="M766 -266l-627 1931h-133l625 -1929z" />
    <glyph glyph-name="bracketright" unicode="]" horiz-adv-x="778" 
d="M485 -283v1934h-403v-88h211v-1756h-211v-88z" />
    <glyph glyph-name="asciicircum" unicode="^" 
d="M1063 670l-340 837h-131l-340 -837l59 -37l346 573l347 -573z" />
    <glyph glyph-name="underscore" unicode="_" horiz-adv-x="1024" 
d="M1024 -428v109h-1024v-107z" />
    <glyph glyph-name="grave" unicode="`" horiz-adv-x="778" 
d="M618 1149l-243 397l-219 -94l393 -340z" />
    <glyph glyph-name="a" unicode="a" horiz-adv-x="1110" 
d="M1036 12q-31 31 -53 95t-22 114v467q0 184 -91 261t-276 77q-292 0 -461 -129l68 -143q75 98 159 142t193 44q87 0 118 -61.5t31 -237.5q-112 -19 -195 -40t-163.5 -54t-131 -74.5t-81.5 -102t-31 -137.5q0 -256 326 -256q192 0 311 132q3 -35 16 -74t29 -58zM707 199
q-41 -49 -94.5 -79t-100.5 -30q-76 0 -129 41.5t-53 112.5q0 130 90.5 200t286.5 115v-360z" />
    <glyph glyph-name="b" unicode="b" horiz-adv-x="1216" 
d="M1128 530q0 120 -34 216t-91 156t-129 92t-151 32q-239 0 -336 -129v698l-256 -39v-1556l195 59q160 -82 385 -82q130 0 226 75t143.5 199t47.5 279zM866 463q0 -193 -67.5 -303.5t-194.5 -110.5q-60 0 -130 45t-93 101v505q0 92 65 155t146 63q274 0 274 -455z" />
    <glyph glyph-name="c" unicode="c" horiz-adv-x="1110" 
d="M1040 260l-45 29q-90 -193 -313 -193q-141 0 -231.5 126t-90.5 366q0 173 74.5 268.5t181.5 95.5q108 0 188 -52t140 -161l47 162q-58 49 -152.5 87t-205.5 38q-154 0 -275.5 -59t-194.5 -179t-73 -284t71 -284.5t193 -181.5t279 -61q164 0 267.5 78.5t139.5 204.5z" />
    <glyph glyph-name="d" unicode="d" horiz-adv-x="1232" 
d="M1102 0v1597l-262 -38v-603q-36 29 -106.5 49.5t-168.5 20.5q-132 0 -242 -74.5t-172.5 -201t-62.5 -275.5q0 -120 37 -217t98.5 -157t136.5 -92t154 -32q77 0 138.5 13t102.5 37.5t66 46.5t49 53v-127h232zM854 303q0 -88 -72 -152.5t-155 -64.5q-129 0 -204 112.5
t-75 342.5q0 184 76.5 297.5t191.5 113.5q65 0 137 -31.5t101 -78.5v-539z" />
    <glyph glyph-name="e" unicode="e" horiz-adv-x="1153" 
d="M1063 520q0 123 -37.5 221t-101 159.5t-144.5 93.5t-172 32q-232 0 -375 -137.5t-143 -384.5q0 -164 72 -285t194 -181.5t279 -60.5q168 0 269 77.5t143 205.5l-46 25q-104 -189 -319 -189q-56 0 -108.5 25t-98 74.5t-75 133.5t-35.5 191h698zM788 598h-428
q0 171 64.5 262.5t159.5 91.5t149.5 -87.5t54.5 -266.5z" />
    <glyph glyph-name="f" unicode="f" horiz-adv-x="747" 
d="M965 1571q-101 67 -289 67q-65 0 -130.5 -24.5t-126 -75.5t-107.5 -122t-75 -171t-28 -215v-26q-75 0 -162 10v-105q108 11 162 11v-920h256v920q148 0 244 -11v105q-97 -10 -244 -10v24q0 114 11.5 205.5t36.5 165t69 113.5t104 40q43 0 92 -30t84 -92z" />
    <glyph glyph-name="g" unicode="g" horiz-adv-x="1216" 
d="M1085 160v846l-200 -70q-116 90 -326 90q-113 0 -204 -41t-148.5 -111.5t-88 -162t-30.5 -195.5q0 -107 37 -196t98.5 -145.5t136.5 -87t154 -30.5q110 0 197 34t123 95v-61q0 -126 -14.5 -204.5t-65.5 -135.5q-109 -121 -258 -121q-144 0 -263 113l-49 -139
q144 -64 334 -64q251 0 391 117q176 147 176 469zM838 383q0 -92 -62 -154.5t-143 -62.5q-134 0 -208.5 100.5t-74.5 308.5q0 172 76 274.5t207 102.5q59 0 119.5 -42.5t85.5 -102.5v-424z" />
    <glyph glyph-name="h" unicode="h" horiz-adv-x="1161" 
d="M1030 0v670q0 182 -77.5 269t-266.5 87q-94 0 -173 -40t-126 -93v702l-256 -36v-1559h256v788q92 127 211 127q81 0 128.5 -58.5t47.5 -182.5v-674h256z" />
    <glyph glyph-name="i" unicode="i" horiz-adv-x="526" 
d="M412 1317q0 66 -43.5 111t-106.5 45t-106 -45t-43 -111t43 -112t106 -46t106.5 46t43.5 112zM391 0v1028l-256 -39v-989h256z" />
    <glyph glyph-name="j" unicode="j" horiz-adv-x="573" 
d="M461 1317q0 66 -43.5 111t-106.5 45t-106 -45t-43 -111t43 -112t106 -46t106.5 46t43.5 112zM440 256v772l-256 -39v-758q0 -204 -80 -354t-268 -250l27 -55q143 29 255.5 98.5t181.5 163t104.5 201t35.5 221.5z" />
    <glyph glyph-name="k" unicode="k" horiz-adv-x="1036" 
d="M1067 0l-512 625q194 164 438 364h-157q-59 -56 -199.5 -178t-249.5 -211v995l-256 -36v-1559h250v496l385 -496h301z" />
    <glyph glyph-name="l" unicode="l" horiz-adv-x="530" 
d="M395 0v1595l-260 -36v-1559h260z" />
    <glyph glyph-name="m" unicode="m" horiz-adv-x="1673" 
d="M1542 0v670q0 92 -14.5 155t-50.5 110t-99 69t-157 22q-89 0 -166.5 -41.5t-128.5 -112.5q-33 79 -98.5 116.5t-186.5 37.5q-84 0 -150 -39.5t-104 -93.5v133l-256 -37v-989h256v788q92 127 174 127q76 0 111 -56t35 -185v-674h251v670q0 71 -8 118q99 127 191 127
q77 0 111 -55.5t34 -185.5v-674h256z" />
    <glyph glyph-name="n" unicode="n" horiz-adv-x="1161" 
d="M1030 0v670q0 181 -80.5 268.5t-269.5 87.5q-94 0 -174.5 -40t-126.5 -93v133l-248 -37v-989h256v788q40 56 97 91.5t122 35.5q168 0 168 -241v-674h256z" />
    <glyph glyph-name="o" unicode="o" horiz-adv-x="1239" 
d="M1149 504q0 146 -63 264t-186 188t-286 70q-162 0 -283 -72.5t-181 -191.5t-60 -266q0 -224 144.5 -371.5t388.5 -147.5q122 0 222.5 41.5t166.5 113t101.5 167.5t35.5 205zM885 442q0 -189 -68 -291t-196 -102q-83 0 -145.5 76t-92 189.5t-29.5 242.5q0 189 67 292
t195 103q83 0 146 -76.5t93 -190.5t30 -243z" />
    <glyph glyph-name="p" unicode="p" horiz-adv-x="1216" 
d="M1128 530q0 119 -37 216t-98.5 156.5t-136.5 91.5t-154 32q-112 0 -203.5 -35t-127.5 -94v129l-240 -39v-1464h256v536q93 -82 303 -82q134 0 235 75t152 199.5t51 278.5zM866 463q0 -192 -73 -303t-207 -111q-54 0 -118.5 44.5t-88.5 101.5v505q0 92 63 155t144 63
q134 0 207 -111.5t73 -343.5z" />
    <glyph glyph-name="q" unicode="q" horiz-adv-x="1216" 
d="M1085 -479v1485l-200 -70q-116 90 -326 90q-114 0 -204.5 -43.5t-148 -119.5t-88 -176t-30.5 -216q0 -119 37 -215.5t98.5 -156t136.5 -91t154 -31.5q110 0 194.5 33t120.5 94v-581zM838 301q0 -92 -62 -154.5t-143 -62.5q-134 0 -208.5 111.5t-74.5 343.5
q0 190 76 301.5t207 111.5q58 0 119 -43t86 -102v-506z" />
    <glyph glyph-name="r" unicode="r" horiz-adv-x="835" 
d="M846 981q-79 45 -189 45q-103 0 -179 -57.5t-99 -118.5v176l-248 -37v-989h256v748q91 161 217 161q64 0 120 -38t85 -89z" />
    <glyph glyph-name="s" unicode="s" horiz-adv-x="1044" 
d="M956 289q0 123 -91.5 197.5t-280.5 134.5q-155 48 -214 89.5t-59 106.5q0 127 187 127q100 0 197 -57t132 -137l78 133q-60 56 -169.5 99.5t-260.5 43.5q-166 0 -274.5 -83t-108.5 -208q0 -110 64.5 -177t195.5 -107q116 -35 189.5 -66.5t108.5 -61.5t46 -54.5t11 -57.5
q0 -74 -56 -111t-178 -37q-87 0 -193 47t-155 117l-76 -139q73 -46 194 -78.5t249 -32.5q464 0 464 312z" />
    <glyph glyph-name="t" unicode="t" horiz-adv-x="792" 
d="M764 86l-27 49q-63 -53 -141 -53q-59 0 -81.5 30t-22.5 105v703q118 0 223 -11v105q-98 -10 -223 -10v413l-256 -37v-376q-100 0 -175 10v-105q90 11 175 11v-705q0 -119 69 -178.5t189 -59.5q57 0 99.5 7.5t75 26.5t49 32.5t46.5 42.5z" />
    <glyph glyph-name="u" unicode="u" horiz-adv-x="1159" 
d="M1030 0v1026l-256 -37v-776q-40 -56 -97 -91.5t-122 -35.5q-168 0 -168 242v698l-256 -37v-657q0 -182 77.5 -268.5t266.5 -86.5q95 0 179.5 40t127.5 92v-109h248z" />
    <glyph glyph-name="v" unicode="v" horiz-adv-x="958" 
d="M954 989h-129q-122 -355 -262 -717l-295 717h-286l464 -989h115q162 418 393 989z" />
    <glyph glyph-name="w" unicode="w" horiz-adv-x="1443" 
d="M1421 989h-129q-89 -310 -209 -667l-241 675l-164 -26l-191 -637l-198 655h-289l369 -989h114l222 717l264 -717h114q160 480 338 989z" />
    <glyph glyph-name="x" unicode="x" horiz-adv-x="917" 
d="M909 0l-352 571q185 252 313 418h-145q-90 -147 -221 -323l-187 323h-297l322 -522q-124 -180 -348 -467h141q175 259 260 369l217 -369h297z" />
    <glyph glyph-name="y" unicode="y" horiz-adv-x="993" 
d="M1001 989h-137q-38 -110 -121.5 -325t-140.5 -347l-323 672h-295l493 -950q-85 -220 -194 -277q-62 -30 -168 -30q-90 0 -142 24l21 -139q95 0 186 16.5t144 42.5q146 71 264 347q311 741 413 966z" />
    <glyph glyph-name="z" unicode="z" horiz-adv-x="1044" 
d="M991 989h-291h-223q-246 4 -350 12v-112q106 12 510 12l-598 -901h946v121q-84 -16 -189 -23.5t-180.5 -8.5t-224.5 -1z" />
    <glyph glyph-name="braceleft" unicode="{" horiz-adv-x="778" 
d="M700 -256q-50 1 -82 23.5t-47 69t-19.5 93.5t-4.5 121v336q0 134 -35.5 202t-142.5 97q45 9 77 26.5t51.5 41.5t30.5 60t15 74.5t4 92.5v340q0 60 2 98.5t10.5 81t24 66t43.5 39.5t69 16l-10 55q-328 0 -328 -321v-334q0 -70 -2.5 -110t-10.5 -78.5t-25 -59.5t-44 -37.5
t-69 -29.5v-45q51 -13 80.5 -32.5t45.5 -59.5t20.5 -88.5t4.5 -135.5v-332q0 -323 332 -323z" />
    <glyph glyph-name="bar" unicode="|" horiz-adv-x="634" 
d="M403 971v598h-157v-598h157zM403 -41v598h-157v-596z" />
    <glyph glyph-name="braceright" unicode="}" horiz-adv-x="778" 
d="M573 662v45q-42 13 -69 29.5t-44 37.5t-25 59.5t-10.5 78.5t-2.5 110v334q0 321 -328 321l-10 -55q41 0 69 -16t43.5 -39.5t24 -66t10.5 -81t2 -98.5v-340q0 -67 7 -112.5t25.5 -85t54.5 -63t92 -34.5q-56 -15 -92 -40t-55 -64t-25.5 -84t-6.5 -111v-336q0 -58 -2.5 -98
t-11.5 -82t-25 -67.5t-44.5 -41.5t-69.5 -16l10 -55q332 0 332 323v332q0 87 4.5 135.5t20.5 88.5t45.5 59.5t80.5 32.5z" />
    <glyph glyph-name="asciitilde" unicode="~" horiz-adv-x="1024" 
d="M864 1409q-81 -100 -190 -100q-29 0 -67.5 20t-72 43.5t-81 43.5t-91.5 20q-106 0 -178 -56l-22 -192q45 53 89 76.5t101 23.5q29 0 67.5 -20t72 -43.5t81 -43.5t91.5 -20q110 0 178 56z" />
    <glyph glyph-name="exclamdown" unicode="&#xa1;" horiz-adv-x="765" 
d="M532 1006q0 66 -43 111.5t-106 45.5t-106.5 -45.5t-43.5 -111.5t43.5 -111t106.5 -45t106 45t43 111zM541 -412l-115 1102h-82l-119 -1100z" />
    <glyph glyph-name="cent" unicode="&#xa2;" horiz-adv-x="1224" 
d="M1081 260l-45 29q-46 -98 -127.5 -145.5t-187.5 -47.5q-65 0 -129 31l199 799q128 -47 204 -187l47 162q-82 70 -231 107l57 231l-104 14l-55 -229q-14 2 -45 2q-154 0 -275.5 -59t-194.5 -179t-73 -284q0 -186 92.5 -314.5t249.5 -181.5l-55 -223l96 -16l53 219
q71 -11 117 -11q164 0 267.5 78.5t139.5 204.5zM690 950l-184 -760q-121 138 -121 398q0 172 76.5 268t183.5 96q31 0 45 -2z" />
    <glyph glyph-name="sterling" unicode="&#xa3;" horiz-adv-x="1486" 
d="M1440 12l-19 320q-51 -60 -138.5 -104t-176.5 -44q-130 0 -215 97q14 52 14 155q0 111 -69 283h381v82h-416q-6 12 -39.5 68.5t-59 103t-48.5 106.5t-23 99q0 138 65.5 210t184.5 72q129 0 223 -67.5t145 -231.5l90 139q-26 49 -64.5 90t-96.5 78t-143 58.5t-189 21.5
q-125 0 -221.5 -30.5t-154.5 -84t-87 -122.5t-29 -150q0 -138 147 -352q4 -6 5 -8h-309v-82h350q82 -158 94 -305q-44 32 -109 51.5t-110 19.5q-153 0 -237.5 -70t-84.5 -190q0 -51 18.5 -95.5t56.5 -82.5t104.5 -60t154.5 -22q124 0 225 44t152 114q148 -158 371 -158
q110 0 258 47zM631 289q-24 -91 -84.5 -134.5t-132.5 -43.5q-75 0 -134 39.5t-59 105.5q0 75 51.5 110t139.5 35q125 0 219 -112z" />
    <glyph glyph-name="currency" unicode="&#xa4;" horiz-adv-x="1200" 
d="M1114 268l-149 150q92 126 92 274q0 152 -92 275l149 149l-92 92l-150 -149q-120 90 -272 90t-274 -92l-150 151l-92 -92l149 -151q-90 -120 -90 -273q0 -149 90 -272l-151 -150l92 -92l150 150q126 -92 276 -92q152 0 272 90l150 -150zM928 692q0 -135 -96.5 -231
t-231.5 -96t-231.5 96t-96.5 231t96.5 231.5t231.5 96.5t231.5 -96.5t96.5 -231.5z" />
    <glyph glyph-name="yen" unicode="&#xa5;" 
d="M1221 1513h-148q-131 -296 -348 -692l-348 692h-332l416 -739h-398v-98h447v-230h-447v-98h447v-348h281v348h428v98h-428v230h428v98h-392q158 303 394 739z" />
    <glyph glyph-name="brokenbar" unicode="&#xa6;" horiz-adv-x="634" 
d="M403 -41v1610h-157v-1608z" />
    <glyph glyph-name="section" unicode="&#xa7;" horiz-adv-x="2048" 
d="M1540 807q0 118 -90.5 202.5t-263.5 153.5q-35 14 -96 38q-186 74 -237.5 106t-51.5 90q0 141 229 141q115 0 232.5 -56.5t171.5 -154.5l63 154q-198 143 -471 143q-201 0 -314.5 -74.5t-113.5 -210.5q0 -98 50 -164t165 -120q-158 -27 -238.5 -99.5t-80.5 -197.5
q0 -110 84.5 -195t257.5 -153q259 -102 344.5 -155t85.5 -120q0 -78 -63 -126t-193 -48q-282 0 -416 203l-72 -158q166 -79 262 -108t236 -29q232 0 347.5 82t115.5 215q0 126 -60.5 209t-181.5 141q144 19 221.5 92.5t77.5 198.5zM1337 725q0 -30 -10 -52t-25.5 -36.5
t-46.5 -27t-59.5 -20t-77.5 -18.5q-40 16 -109 43q-204 79 -261.5 116t-57.5 106q0 73 61.5 111t184.5 52q241 -97 321 -148t80 -126z" />
    <glyph glyph-name="dieresis" unicode="&#xa8;" horiz-adv-x="2048" 
d="M1290 1620q0 41 -30.5 70.5t-71.5 29.5t-71 -29.5t-30 -70.5q0 -42 29.5 -71t71.5 -29t72 29t30 71zM956 1620q0 41 -30.5 70.5t-71.5 29.5q-40 0 -70 -29.5t-30 -70.5q0 -42 30 -71t70 -29q42 0 72 29t30 71z" />
    <glyph glyph-name="copyright" unicode="&#xa9;" horiz-adv-x="1652" 
d="M1544 711q0 145 -57 278t-153.5 228.5t-229.5 152.5t-279 57q-193 0 -358 -96.5t-261.5 -261.5t-96.5 -358t96.5 -358t261.5 -261t358 -96q146 0 279 56.5t229.5 152.5t153.5 228.5t57 277.5zM1442 711q0 -83 -22.5 -162.5t-62.5 -146.5t-97 -124t-124.5 -96.5
t-147.5 -61.5t-163 -22q-165 0 -306 82.5t-223.5 224t-82.5 306.5t82.5 306t223.5 223.5t306 82.5q166 0 308.5 -82t225.5 -223t83 -307zM1159 326l-10 137q-131 -131 -258 -131q-150 0 -224.5 98.5t-74.5 317.5q0 181 74 259t208 78q132 0 244 -112l25 129q-137 55 -273 55
q-88 0 -170 -29.5t-148 -84t-106 -142t-40 -194.5q0 -223 132.5 -335t356.5 -112q66 0 144.5 20.5t119.5 45.5z" />
    <glyph glyph-name="ordfeminine" unicode="&#xaa;" horiz-adv-x="718" 
d="M616 1012q-17 17 -29 50.5t-12 59.5v246q0 96 -47 136t-145 40q-155 0 -242 -67l37 -76q71 98 184 98q45 0 61.5 -32.5t16.5 -123.5q-59 -11 -102.5 -22t-85.5 -28.5t-68.5 -39t-42.5 -53.5t-16 -72q0 -137 170 -137q99 0 164 72q4 -45 24 -72zM442 1110
q-47 -57 -102 -57q-38 0 -66 22.5t-28 59.5q0 67 47 103.5t149 61.5v-190z" />
    <glyph glyph-name="guillemotleft" unicode="&#xab;" horiz-adv-x="1343" 
d="M1161 20l-381 474l381 473l-49 57l-571 -530l571 -529zM735 20l-381 474l381 473l-49 57l-571 -530l571 -529z" />
    <glyph glyph-name="logicalnot" unicode="&#xac;" horiz-adv-x="1024" 
d="M946 102v519h-885v-121h766v-398h119z" />
    <glyph glyph-name="uni00AD" unicode="&#xad;" horiz-adv-x="1024" 
d="M993 475v94h-962v-94h962z" />
    <glyph glyph-name="registered" unicode="&#xae;" horiz-adv-x="1652" 
d="M1544 711q0 145 -57 278t-153.5 228.5t-229.5 152.5t-279 57q-193 0 -358 -96.5t-261.5 -261.5t-96.5 -358t96.5 -358t261.5 -261t358 -96q146 0 279 56.5t229.5 152.5t153.5 228.5t57 277.5zM999 909q0 -94 -56 -145t-142 -51h-80v395h80q86 0 142 -52t56 -147z
M1442 711q0 -133 -55 -250.5t-152 -204.5q-113 66 -188 178q-32 39 -59.5 85t-40 73t-34.5 76q123 3 193 69t70 172q0 86 -44 145t-108.5 84t-142.5 25h-330v-903h170v402h33q19 -63 60 -138.5t95 -138.5q83 -95 277 -170q-158 -117 -361 -117q-165 0 -306 82.5t-223.5 224
t-82.5 306.5t82.5 306t223.5 223.5t306 82.5q166 0 308.5 -82t225.5 -223t83 -307z" />
    <glyph glyph-name="macron" unicode="&#xaf;" horiz-adv-x="1024" 
d="M813 1221v147h-602v-147h602z" />
    <glyph glyph-name="degree" unicode="&#xb0;" horiz-adv-x="2048" 
d="M600 1454q0 91 -63.5 155t-155.5 64q-91 0 -155 -64t-64 -155q0 -92 64 -155.5t155 -63.5q92 0 155.5 63.5t63.5 155.5zM516 1454q0 -57 -39 -96t-96 -39q-56 0 -95.5 39t-39.5 96q0 56 40 95.5t95 39.5q57 0 96 -39.5t39 -95.5z" />
    <glyph glyph-name="plusminus" unicode="&#xb1;" horiz-adv-x="2048" 
d="M1681 903v111h-600v473h-114v-473h-602v-111h602v-508h114v508h600zM1681 106v111h-1316v-111h1316z" />
    <glyph glyph-name="uni00B2" unicode="&#xb2;" horiz-adv-x="751" 
d="M668 868h-455q30 21 103.5 76.5t103.5 77.5q124 90 173.5 154t49.5 149q0 96 -68.5 159.5t-199.5 63.5q-93 0 -169 -55.5t-118 -144.5l64 -31q82 139 174 139q70 0 105.5 -36t35.5 -103q0 -64 -29 -117.5t-108 -126.5q-47 -43 -139 -123t-121 -106v-107h573z" />
    <glyph glyph-name="uni00B3" unicode="&#xb3;" horiz-adv-x="751" 
d="M702 991q0 83 -77.5 131.5t-204.5 48.5q-35 0 -53 -2q48 7 92.5 21.5t88 38t69.5 59.5t26 80q0 78 -65.5 128t-190.5 50q-195 0 -291 -141l47 -27q28 38 79.5 62t105.5 24q70 0 104.5 -25t34.5 -81q0 -63 -60.5 -105.5t-181.5 -72.5l19 -64q37 6 71 6q89 0 146 -36
t57 -97q0 -240 -477 -291l25 -57q143 6 256.5 29t200 64.5t133 106.5t46.5 150z" />
    <glyph glyph-name="acute" unicode="&#xb4;" horiz-adv-x="2048" 
d="M1343 1511l-180 209l-436 -319l47 -64z" />
    <glyph glyph-name="mu" unicode="&#xb5;" horiz-adv-x="1159" 
d="M1030 0v1026l-256 -37v-776q-40 -56 -97 -91.5t-122 -35.5q-168 0 -168 242v698l-256 -37v-1315h256v310q47 -7 88 -7q95 0 179.5 40t127.5 92v-109h248z" />
    <glyph glyph-name="paragraph" unicode="&#xb6;" horiz-adv-x="2048" 
d="M1436 -80v1694h-478q-179 0 -303.5 -129.5t-124.5 -319.5q0 -189 124.5 -315.5t303.5 -126.5v-801h127v1600h228v-1600z" />
    <glyph glyph-name="periodcentered" unicode="&#xb7;" horiz-adv-x="765" 
d="M553 768q0 71 -49.5 119.5t-118.5 48.5t-118.5 -48.5t-49.5 -119.5q0 -67 50 -115.5t118 -48.5t118 48.5t50 115.5z" />
    <glyph glyph-name="cedilla" unicode="&#xb8;" horiz-adv-x="1024" 
d="M745 -219q0 82 -54 121t-142 39q-40 0 -72 -4l37 104l-104 8l-72 -225q40 8 94 8q41 0 66.5 -15.5t25.5 -43.5t-23.5 -44t-58.5 -16q-37 0 -85 9t-76 22l-31 -53q48 -32 116 -54t132 -22q114 0 180.5 41t66.5 125z" />
    <glyph glyph-name="uni00B9" unicode="&#xb9;" horiz-adv-x="751" 
d="M461 737v805l-279 -94v-62l109 35v-684h170z" />
    <glyph glyph-name="ordmasculine" unicode="&#xba;" horiz-adv-x="718" 
d="M637 1266q0 119 -76 196.5t-205 77.5q-126 0 -200 -80t-74 -198q0 -119 75 -196t203 -77t202.5 79.5t74.5 197.5zM498 1233q0 -99 -35.5 -152t-102.5 -53q-65 0 -102 79.5t-37 186.5q0 99 35 154t102 55q64 0 102 -82t38 -188z" />
    <glyph glyph-name="guillemotright" unicode="&#xbb;" horiz-adv-x="1343" 
d="M1245 494l-571 530l-49 -57l381 -473l-381 -474l49 -55zM819 494l-571 530l-49 -57l381 -473l-381 -474l49 -55z" />
    <glyph glyph-name="onequarter" unicode="&#xbc;" horiz-adv-x="1394" 
d="M393 737v805l-278 -94v-62l108 35v-684h170zM1174 1571h-113l-916 -1622h115zM1300 184v125h-116v508h-156l-395 -510v-123h385v-184h166v184h116zM1018 309h-291l291 377v-377z" />
    <glyph glyph-name="onehalf" unicode="&#xbd;" horiz-adv-x="1394" 
d="M393 737v805l-278 -94v-62l108 35v-684h170zM1174 1571h-113l-916 -1622h115zM1298 131h-454q29 22 103.5 77t103.5 77q124 90 173.5 154t49.5 149q0 96 -68.5 159.5t-199.5 63.5q-93 0 -169 -56t-118 -145l63 -30q82 139 174 139q70 0 106 -36t36 -103q0 -64 -29 -117.5
t-108 -126.5q-47 -43 -140 -124t-121 -106v-106h574z" />
    <glyph glyph-name="threequarters" unicode="&#xbe;" horiz-adv-x="1394" 
d="M741 991q0 83 -77.5 131.5t-204.5 48.5q-35 0 -53 -2q48 7 92.5 21.5t88 38t69.5 59.5t26 80q0 78 -65.5 128t-190.5 50q-195 0 -291 -141l47 -27q28 38 79.5 62t105.5 24q70 0 104.5 -25t34.5 -81q0 -63 -60.5 -105.5t-181.5 -72.5l19 -64q37 6 71 6q89 0 146 -36
t57 -97q0 -240 -477 -291l24 -57q143 6 256.5 29t200.5 64.5t133.5 106.5t46.5 150zM1270 1571h-113l-915 -1622h114zM1300 184v125h-116v508h-156l-395 -510v-123h385v-184h166v184h116zM1018 309h-291l291 377v-377z" />
    <glyph glyph-name="questiondown" unicode="&#xbf;" horiz-adv-x="1343" 
d="M840 1006q0 66 -43.5 111.5t-106.5 45.5t-106 -45.5t-43 -111.5t43 -111t106 -45t106.5 45t43.5 111zM1214 -109l-124 134q-46 -161 -139.5 -251.5t-237.5 -90.5q-136 0 -217.5 87.5t-81.5 239.5q0 150 95.5 252.5t281.5 138.5l-66 293h-68v-186q-215 -38 -349 -169
t-134 -327q0 -185 141 -304.5t363 -119.5q183 0 324 80.5t212 222.5z" />
    <glyph glyph-name="Agrave" unicode="&#xc0;" horiz-adv-x="1466" 
d="M1024 1628l-436 320l-180 -209l569 -174zM1501 0l-688 1563l-199 -50q-363 -862 -649 -1513h146q101 262 221 537h624l211 -537h334zM924 629h-557q30 76 140 345t138 339z" />
    <glyph glyph-name="Aacute" unicode="&#xc1;" horiz-adv-x="1466" 
d="M1063 1739l-180 209l-437 -320l48 -63zM1501 0l-688 1563l-199 -50q-363 -862 -649 -1513h146q101 262 221 537h624l211 -537h334zM924 629h-557q30 76 140 345t138 339z" />
    <glyph glyph-name="Acircumflex" unicode="&#xc2;" horiz-adv-x="1466" 
d="M1071 1608l-274 315h-127l-275 -315l39 -47l299 180l299 -180zM1501 0l-688 1563l-199 -50q-363 -862 -649 -1513h146q101 262 221 537h624l211 -537h334zM924 629h-557q30 76 140 345t138 339z" />
    <glyph glyph-name="Atilde" unicode="&#xc3;" horiz-adv-x="1466" 
d="M1085 1855q-81 -100 -190 -100q-29 0 -67.5 20t-71.5 43.5t-80.5 43.5t-91.5 20q-107 0 -178 -55l-23 -193q45 53 89.5 77t100.5 24q29 0 67.5 -20t72 -43.5t81 -43.5t91.5 -20q111 0 178 55zM1501 0l-688 1563l-199 -50q-363 -862 -649 -1513h146q101 262 221 537h624
l211 -537h334zM924 629h-557q30 76 140 345t138 339z" />
    <glyph glyph-name="Adieresis" unicode="&#xc4;" horiz-adv-x="1466" 
d="M1001 1745q0 41 -30.5 70.5t-71.5 29.5t-70.5 -29.5t-29.5 -70.5q0 -42 29 -71t71 -29t72 29t30 71zM668 1745q0 41 -30.5 70.5t-72.5 29.5q-40 0 -70 -29.5t-30 -70.5q0 -42 30 -71t70 -29q42 0 72.5 29t30.5 71zM1501 0l-688 1563l-199 -50q-363 -862 -649 -1513h146
q101 262 221 537h624l211 -537h334zM924 629h-557q30 76 140 345t138 339z" />
    <glyph glyph-name="Aring" unicode="&#xc5;" horiz-adv-x="1466" 
d="M952 1782q0 91 -63.5 155t-155.5 64q-91 0 -155 -64t-64 -155q0 -92 64 -155.5t155 -63.5q92 0 155.5 63.5t63.5 155.5zM1501 0l-688 1563l-199 -50q-363 -862 -649 -1513h146q101 262 221 537h624l211 -537h334zM842 1782q0 -46 -31.5 -77.5t-77.5 -31.5
q-45 0 -76.5 31.5t-31.5 77.5q0 44 32 76t76 32q45 0 77 -32t32 -76zM924 629h-557q30 76 140 345t138 339z" />
    <glyph glyph-name="AE" unicode="&#xc6;" horiz-adv-x="1832" 
d="M1739 0v147q-241 -41 -604 -41v656q209 0 417 -21v142q-215 -21 -417 -21v555q346 0 528 -31v138q-125 -4 -319.5 -7t-326.5 -3l-132 -1l-879 -1513h160l297 537h422v-537h854zM885 629h-371l371 669v-669z" />
    <glyph glyph-name="Ccedilla" unicode="&#xc7;" horiz-adv-x="1587" 
d="M1509 78l-20 170q-110 -93 -221.5 -144t-247.5 -51t-241.5 43.5t-183 134.5t-118.5 240.5t-41 351.5q0 138 29 246.5t79.5 180.5t121.5 119.5t151.5 68t173.5 20.5q140 0 244.5 -37.5t200.5 -126.5l45 158q-257 96 -498 96q-128 0 -249 -30t-230 -94t-190.5 -156
t-129 -225t-47.5 -291q0 -345 170 -533.5t479 -234.5l-49 -160q40 8 94 8q41 0 67 -15.5t26 -43.5t-23.5 -44t-58.5 -16q-37 0 -85.5 9t-76.5 22l-31 -53q48 -32 116 -54t132 -22q115 0 181.5 41t66.5 127q0 80 -54.5 119t-142.5 39q-39 0 -71 -4l12 34q67 -6 139 -6
q120 0 263 35.5t218 77.5z" />
    <glyph glyph-name="Egrave" unicode="&#xc8;" horiz-adv-x="1191" 
d="M903 1628l-436 320l-180 -209l569 -174zM1124 0v147q-269 -41 -671 -41v656q232 0 465 -21v142q-240 -21 -465 -21v555q384 0 587 -31v138q-139 -4 -356 -7t-364 -3l-148 -1v-1513h952z" />
    <glyph glyph-name="Eacute" unicode="&#xc9;" horiz-adv-x="1191" 
d="M903 1739l-180 209l-436 -320l47 -63zM1124 0v147q-269 -41 -671 -41v656q232 0 465 -21v142q-240 -21 -465 -21v555q384 0 587 -31v138q-139 -4 -356 -7t-364 -3l-148 -1v-1513h952z" />
    <glyph glyph-name="Ecircumflex" unicode="&#xca;" horiz-adv-x="1191" 
d="M934 1608l-275 315h-127l-274 -315l39 -47l299 180l299 -180zM1124 0v147q-269 -41 -671 -41v656q232 0 465 -21v142q-240 -21 -465 -21v555q384 0 587 -31v138q-139 -4 -356 -7t-364 -3l-148 -1v-1513h952z" />
    <glyph glyph-name="Edieresis" unicode="&#xcb;" horiz-adv-x="1191" 
d="M877 1745q0 41 -30.5 70.5t-72.5 29.5q-41 0 -70.5 -29.5t-29.5 -70.5q0 -42 29 -71t71 -29t72.5 29t30.5 71zM543 1745q0 41 -30.5 70.5t-72.5 29.5q-40 0 -70 -29.5t-30 -70.5q0 -42 30 -71t70 -29q42 0 72.5 29t30.5 71zM1124 0v147q-269 -41 -671 -41v656
q232 0 465 -21v142q-240 -21 -465 -21v555q384 0 587 -31v138q-139 -4 -356 -7t-364 -3l-148 -1v-1513h952z" />
    <glyph glyph-name="Igrave" unicode="&#xcc;" horiz-adv-x="628" 
d="M623 1628l-437 320l-180 -209l569 -174zM457 0v1513h-285v-1513h285z" />
    <glyph glyph-name="Iacute" unicode="&#xcd;" horiz-adv-x="628" 
d="M625 1739l-181 209l-436 -320l47 -63zM457 0v1513h-285v-1513h285z" />
    <glyph glyph-name="Icircumflex" unicode="&#xce;" horiz-adv-x="628" 
d="M651 1608l-274 315h-127l-273 -315l37 -47l299 180l299 -180zM457 0v1513h-285v-1513h285z" />
    <glyph glyph-name="Idieresis" unicode="&#xcf;" horiz-adv-x="628" 
d="M584 1745q0 41 -30.5 70.5t-72.5 29.5q-41 0 -70.5 -29.5t-29.5 -70.5q0 -42 29 -71t71 -29t72.5 29t30.5 71zM250 1745q0 41 -30.5 70.5t-72.5 29.5q-40 0 -70 -29.5t-30 -70.5q0 -42 30 -71t70 -29q42 0 72.5 29t30.5 71zM457 0v1513h-285v-1513h285z" />
    <glyph glyph-name="Eth" unicode="&#xd0;" horiz-adv-x="1654" 
d="M1534 758q0 162 -50 292.5t-132.5 215.5t-195.5 142t-232.5 81t-249.5 24h-502v-712h-100v-82h100v-719h518q139 0 259 23.5t229.5 79t187 140.5t123 216.5t45.5 298.5zM1247 764q0 -113 -19 -207.5t-51.5 -163t-80.5 -121.5t-102 -87t-119 -56t-128.5 -30.5t-134.5 -8.5
h-159v629h352v82h-352v622h129q105 0 198 -20t180 -69t149.5 -122.5t100 -188t37.5 -259.5z" />
    <glyph glyph-name="Ntilde" unicode="&#xd1;" horiz-adv-x="1536" 
d="M1116 1855q-81 -100 -190 -100q-29 0 -67.5 20t-72 43.5t-81 43.5t-91.5 20q-107 0 -178 -55l-22 -193q45 53 89.5 77t100.5 24q29 0 67.5 -20t71.5 -43.5t80.5 -43.5t91.5 -20q112 0 179 55zM1376 1513h-151q12 -120 20 -624v-195v-254q-347 491 -796 1106l-273 -33
q2 -244 2 -507q0 -270 -2 -385q-7 -411 -20 -621h151q-16 166 -20 625v301v391q118 -158 464.5 -640.5t481.5 -676.5h123v506v387q3 348 20 620z" />
    <glyph glyph-name="Ograve" unicode="&#xd2;" horiz-adv-x="1814" 
d="M1217 1628l-437 320l-180 -209l569 -174zM1694 754q0 240 -88 417.5t-267 277t-432 99.5q-251 0 -429.5 -99.5t-267.5 -277t-89 -417.5q0 -364 205 -576.5t581 -212.5q254 0 432.5 98.5t266.5 274.5t88 416zM1405 692q0 -315 -133 -477t-365 -162q-146 0 -260 100.5
t-175.5 274t-61.5 387.5q0 314 134 478.5t363 164.5q147 0 261.5 -102t175.5 -275.5t61 -388.5z" />
    <glyph glyph-name="Oacute" unicode="&#xd3;" horiz-adv-x="1814" 
d="M1219 1739l-181 209l-436 -320l47 -63zM1694 754q0 240 -88 417.5t-267 277t-432 99.5q-251 0 -429.5 -99.5t-267.5 -277t-89 -417.5q0 -364 205 -576.5t581 -212.5q254 0 432.5 98.5t266.5 274.5t88 416zM1405 692q0 -315 -133 -477t-365 -162q-146 0 -260 100.5
t-175.5 274t-61.5 387.5q0 314 134 478.5t363 164.5q147 0 261.5 -102t175.5 -275.5t61 -388.5z" />
    <glyph glyph-name="Ocircumflex" unicode="&#xd4;" horiz-adv-x="1814" 
d="M1245 1608l-274 315h-127l-275 -315l39 -47l299 180l299 -180zM1694 754q0 240 -88 417.5t-267 277t-432 99.5q-251 0 -429.5 -99.5t-267.5 -277t-89 -417.5q0 -364 205 -576.5t581 -212.5q254 0 432.5 98.5t266.5 274.5t88 416zM1405 692q0 -315 -133 -477t-365 -162
q-146 0 -260 100.5t-175.5 274t-61.5 387.5q0 314 134 478.5t363 164.5q147 0 261.5 -102t175.5 -275.5t61 -388.5z" />
    <glyph glyph-name="Otilde" unicode="&#xd5;" horiz-adv-x="1814" 
d="M1262 1855q-81 -100 -191 -100q-29 0 -67.5 20t-71.5 43.5t-80.5 43.5t-91.5 20q-107 0 -178 -55l-23 -193q45 53 90 77t101 24q29 0 67.5 -20t71.5 -43.5t80.5 -43.5t91.5 -20q111 0 178 55zM1694 754q0 240 -88 417.5t-267 277t-432 99.5q-251 0 -429.5 -99.5
t-267.5 -277t-89 -417.5q0 -364 205 -576.5t581 -212.5q254 0 432.5 98.5t266.5 274.5t88 416zM1405 692q0 -315 -133 -477t-365 -162q-146 0 -260 100.5t-175.5 274t-61.5 387.5q0 314 134 478.5t363 164.5q147 0 261.5 -102t175.5 -275.5t61 -388.5z" />
    <glyph glyph-name="Odieresis" unicode="&#xd6;" horiz-adv-x="1814" 
d="M1176 1745q0 41 -30.5 70.5t-72.5 29.5q-41 0 -70.5 -29.5t-29.5 -70.5q0 -42 29 -71t71 -29t72.5 29t30.5 71zM842 1745q0 41 -30.5 70.5t-72.5 29.5q-40 0 -70 -29.5t-30 -70.5q0 -42 30 -71t70 -29q42 0 72.5 29t30.5 71zM1694 754q0 240 -88 417.5t-267 277
t-432 99.5q-251 0 -429.5 -99.5t-267.5 -277t-89 -417.5q0 -364 205 -576.5t581 -212.5q254 0 432.5 98.5t266.5 274.5t88 416zM1405 692q0 -315 -133 -477t-365 -162q-146 0 -260 100.5t-175.5 274t-61.5 387.5q0 314 134 478.5t363 164.5q147 0 261.5 -102t175.5 -275.5
t61 -388.5z" />
    <glyph glyph-name="multiply" unicode="&#xd7;" horiz-adv-x="2048" 
d="M1655 1313l-84 86l-547 -549l-545 549l-84 -86l545 -549l-543 -543l82 -84l545 545l547 -545l82 84l-547 545z" />
    <glyph glyph-name="Oslash" unicode="&#xd8;" horiz-adv-x="1814" 
d="M1694 754q0 353 -187 561l183 186l-72 70l-182 -187q-203 164 -529 164q-251 0 -429.5 -99.5t-267.5 -277t-89 -417.5q0 -339 174 -543l-186 -193l71 -71l187 190q203 -172 540 -172q254 0 432.5 98.5t266.5 274.5t88 416zM1278 1221l-797 -820q-71 188 -71 414
q0 314 134 478.5t363 164.5q114 0 208.5 -62t162.5 -175zM1405 692q0 -315 -133 -477t-365 -162q-117 0 -214 66t-165 184l797 823q80 -193 80 -434z" />
    <glyph glyph-name="Ugrave" unicode="&#xd9;" horiz-adv-x="1495" 
d="M1053 1628l-437 320l-180 -209l570 -174zM1348 1513h-152q21 -215 21 -608v-389q0 -210 -102.5 -323t-287.5 -113q-181 0 -277.5 112t-96.5 324v997h-281v-997q0 -90 17 -166t62.5 -149t116 -123.5t185.5 -81.5t264 -31q115 0 205 32.5t146.5 85.5t93 126.5t51 148.5
t14.5 158v393q3 311 21 604z" />
    <glyph glyph-name="Uacute" unicode="&#xda;" horiz-adv-x="1495" 
d="M1059 1739l-180 209l-437 -320l47 -63zM1348 1513h-152q21 -215 21 -608v-389q0 -210 -102.5 -323t-287.5 -113q-181 0 -277.5 112t-96.5 324v997h-281v-997q0 -90 17 -166t62.5 -149t116 -123.5t185.5 -81.5t264 -31q115 0 205 32.5t146.5 85.5t93 126.5t51 148.5
t14.5 158v393q3 311 21 604z" />
    <glyph glyph-name="Ucircumflex" unicode="&#xdb;" horiz-adv-x="1495" 
d="M1067 1608l-274 315h-127l-275 -315l39 -47l299 180l299 -180zM1348 1513h-152q21 -215 21 -608v-389q0 -210 -102.5 -323t-287.5 -113q-181 0 -277.5 112t-96.5 324v997h-281v-997q0 -90 17 -166t62.5 -149t116 -123.5t185.5 -81.5t264 -31q115 0 205 32.5t146.5 85.5
t93 126.5t51 148.5t14.5 158v393q3 311 21 604z" />
    <glyph glyph-name="Udieresis" unicode="&#xdc;" horiz-adv-x="1495" 
d="M997 1745q0 41 -30.5 70.5t-71.5 29.5t-70.5 -29.5t-29.5 -70.5q0 -42 29 -71t71 -29t72 29t30 71zM664 1745q0 41 -30.5 70.5t-72.5 29.5q-40 0 -70 -29.5t-30 -70.5q0 -42 30 -71t70 -29q42 0 72.5 29t30.5 71zM1348 1513h-152q21 -215 21 -608v-389
q0 -210 -102.5 -323t-287.5 -113q-181 0 -277.5 112t-96.5 324v997h-281v-997q0 -90 17 -166t62.5 -149t116 -123.5t185.5 -81.5t264 -31q115 0 205 32.5t146.5 85.5t93 126.5t51 148.5t14.5 158v393q3 311 21 604z" />
    <glyph glyph-name="Yacute" unicode="&#xdd;" horiz-adv-x="1146" 
d="M885 1739l-180 209l-437 -320l47 -63zM1159 1513h-147q-50 -119 -165 -364t-183 -377l-349 741h-329l463 -878v-635h280v649q186 396 430 864z" />
    <glyph glyph-name="Thorn" unicode="&#xde;" horiz-adv-x="1310" 
d="M1219 856q0 108 -41 194.5t-110.5 140t-156.5 81.5t-184 28h-274v213h-281v-1513h281v414h274q77 0 148 17t134 53t109.5 87.5t73.5 124.5t27 160zM928 856q0 -162 -95 -255t-237 -93h-143v698h143q142 0 237 -94t95 -256z" />
    <glyph glyph-name="germandbls" unicode="&#xdf;" horiz-adv-x="1323" 
d="M1237 489q0 120 -66.5 212t-167.5 137.5t-215 46.5q99 14 177 52t128 108t50 161q0 147 -139.5 242.5t-344.5 95.5q-220 0 -347.5 -110t-127.5 -314v-1120h275v1137q0 86 8 144.5t28.5 104.5t58.5 67.5t95 21.5q201 0 201 -267q0 -64 -9 -108t-35.5 -86t-80.5 -65.5
t-137 -30.5v-76q91 -3 158 -28t102.5 -58.5t57 -82t27 -86.5t5.5 -83q0 -66 -9 -121.5t-34 -113t-65.5 -100t-108.5 -75t-158 -45.5v-72q126 0 224.5 14t185 49.5t143 92.5t89 147t32.5 209z" />
    <glyph glyph-name="agrave" unicode="&#xe0;" horiz-adv-x="1110" 
d="M879 1165l-437 320l-180 -209l569 -174zM1036 12q-31 31 -53 95t-22 114v467q0 184 -91 261t-276 77q-292 0 -461 -129l68 -143q75 98 159 142t193 44q87 0 118 -61.5t31 -237.5q-112 -19 -195 -40t-163.5 -54t-131 -74.5t-81.5 -102t-31 -137.5q0 -256 326 -256
q192 0 311 132q3 -35 16 -74t29 -58zM707 199q-41 -49 -94.5 -79t-100.5 -30q-76 0 -129 41.5t-53 112.5q0 130 90.5 200t286.5 115v-360z" />
    <glyph glyph-name="aacute" unicode="&#xe1;" horiz-adv-x="1110" 
d="M870 1276l-180 209l-436 -320l47 -63zM1036 12q-31 31 -53 95t-22 114v467q0 184 -91 261t-276 77q-292 0 -461 -129l68 -143q75 98 159 142t193 44q87 0 118 -61.5t31 -237.5q-112 -19 -195 -40t-163.5 -54t-131 -74.5t-81.5 -102t-31 -137.5q0 -256 326 -256
q192 0 311 132q3 -35 16 -74t29 -58zM707 199q-41 -49 -94.5 -79t-100.5 -30q-76 0 -129 41.5t-53 112.5q0 130 90.5 200t286.5 115v-360z" />
    <glyph glyph-name="acircumflex" unicode="&#xe2;" horiz-adv-x="1110" 
d="M893 1157l-275 316h-126l-275 -316l39 -47l299 180l299 -180zM1036 12q-31 31 -53 95t-22 114v467q0 184 -91 261t-276 77q-292 0 -461 -129l68 -143q75 98 159 142t193 44q87 0 118 -61.5t31 -237.5q-112 -19 -195 -40t-163.5 -54t-131 -74.5t-81.5 -102t-31 -137.5
q0 -256 326 -256q192 0 311 132q3 -35 16 -74t29 -58zM707 199q-41 -49 -94.5 -79t-100.5 -30q-76 0 -129 41.5t-53 112.5q0 130 90.5 200t286.5 115v-360z" />
    <glyph glyph-name="atilde" unicode="&#xe3;" horiz-adv-x="1110" 
d="M918 1409q-81 -100 -191 -100q-29 0 -67.5 20t-71.5 43.5t-80.5 43.5t-91.5 20q-106 0 -178 -56l-23 -192q44 53 89 76.5t102 23.5q29 0 67.5 -20t71.5 -43.5t80.5 -43.5t91.5 -20q110 0 178 56zM1036 12q-31 31 -53 95t-22 114v467q0 184 -91 261t-276 77
q-292 0 -461 -129l68 -143q75 98 159 142t193 44q87 0 118 -61.5t31 -237.5q-112 -19 -195 -40t-163.5 -54t-131 -74.5t-81.5 -102t-31 -137.5q0 -256 326 -256q192 0 311 132q3 -35 16 -74t29 -58zM707 199q-41 -49 -94.5 -79t-100.5 -30q-76 0 -129 41.5t-53 112.5
q0 130 90.5 200t286.5 115v-360z" />
    <glyph glyph-name="adieresis" unicode="&#xe4;" horiz-adv-x="1110" 
d="M821 1303q0 41 -30.5 70.5t-71.5 29.5t-71 -29.5t-30 -70.5q0 -42 29.5 -71.5t71.5 -29.5t72 29.5t30 71.5zM487 1303q0 41 -30.5 70.5t-71.5 29.5q-40 0 -70 -29.5t-30 -70.5q0 -42 30 -71.5t70 -29.5q42 0 72 29.5t30 71.5zM1036 12q-31 31 -53 95t-22 114v467
q0 184 -91 261t-276 77q-292 0 -461 -129l68 -143q75 98 159 142t193 44q87 0 118 -61.5t31 -237.5q-112 -19 -195 -40t-163.5 -54t-131 -74.5t-81.5 -102t-31 -137.5q0 -256 326 -256q192 0 311 132q3 -35 16 -74t29 -58zM707 199q-41 -49 -94.5 -79t-100.5 -30
q-76 0 -129 41.5t-53 112.5q0 130 90.5 200t286.5 115v-360z" />
    <glyph glyph-name="aring" unicode="&#xe5;" horiz-adv-x="1110" 
d="M774 1311q0 91 -63.5 155t-155.5 64q-91 0 -155 -64t-64 -155q0 -92 64 -155.5t155 -63.5q92 0 155.5 63.5t63.5 155.5zM1036 12q-31 31 -53 95t-22 114v467q0 184 -91 261t-276 77q-292 0 -461 -129l68 -143q75 98 159 142t193 44q87 0 118 -61.5t31 -237.5
q-112 -19 -195 -40t-163.5 -54t-131 -74.5t-81.5 -102t-31 -137.5q0 -256 326 -256q192 0 311 132q3 -35 16 -74t29 -58zM664 1311q0 -46 -31.5 -77.5t-77.5 -31.5q-45 0 -77 32t-32 77q0 44 32.5 76t76.5 32q45 0 77 -31.5t32 -76.5zM707 199q-41 -49 -94.5 -79t-100.5 -30
q-76 0 -129 41.5t-53 112.5q0 130 90.5 200t286.5 115v-360z" />
    <glyph glyph-name="ae" unicode="&#xe6;" horiz-adv-x="1724" 
d="M1571 520q0 123 -33 221t-89.5 159.5t-129 93.5t-154.5 32q-181 0 -301 -102q-73 102 -266 102q-130 0 -237.5 -34.5t-178.5 -94.5l62 -143q67 98 142.5 142t174.5 44q53 0 81 -26t41 -90t13 -183q-101 -19 -176 -40t-147.5 -54t-118 -74.5t-73 -102t-27.5 -137.5
q0 -256 292 -256q203 0 340 203q66 -99 170 -151t234 -52q150 0 239.5 77.5t126.5 205.5l-40 25q-93 -189 -283 -189q-51 0 -99 25t-89.5 74.5t-69 133.5t-33.5 191h629zM1329 598h-389q0 171 59 262.5t144 91.5q87 0 136.5 -87.5t49.5 -266.5zM748 258q-122 -168 -224 -168
q-69 0 -119.5 42t-50.5 112q0 124 82 198t266 117q-2 -18 -2 -55q0 -138 48 -246z" />
    <glyph glyph-name="ccedilla" unicode="&#xe7;" horiz-adv-x="1110" 
d="M1040 260l-45 29q-90 -193 -313 -193q-141 0 -231.5 126t-90.5 366q0 173 74.5 268.5t181.5 95.5q108 0 188 -52t140 -161l47 162q-58 49 -152.5 87t-205.5 38q-154 0 -275.5 -59t-194.5 -179t-73 -284q0 -202 105.5 -335.5t281.5 -174.5l-53 -170q40 8 94 8
q41 0 66.5 -15.5t25.5 -43.5t-23.5 -44t-58.5 -16q-37 0 -85 9t-76 22l-31 -53q48 -32 116 -54t132 -22q115 0 181 41t66 127q0 80 -54 119t-142 39q-40 0 -72 -4l15 43q27 -3 55 -3q164 0 267.5 78.5t139.5 204.5z" />
    <glyph glyph-name="egrave" unicode="&#xe8;" horiz-adv-x="1153" 
d="M913 1165l-436 320l-180 -209l569 -174zM1063 520q0 123 -37.5 221t-101 159.5t-144.5 93.5t-172 32q-232 0 -375 -137.5t-143 -384.5q0 -164 72 -285t194 -181.5t279 -60.5q168 0 269 77.5t143 205.5l-46 25q-104 -189 -319 -189q-56 0 -108.5 25t-98 74.5t-75 133.5
t-35.5 191h698zM788 598h-428q0 171 64.5 262.5t159.5 91.5t149.5 -87.5t54.5 -266.5z" />
    <glyph glyph-name="eacute" unicode="&#xe9;" horiz-adv-x="1153" 
d="M899 1276l-180 209l-436 -320l47 -63zM1063 520q0 123 -37.5 221t-101 159.5t-144.5 93.5t-172 32q-232 0 -375 -137.5t-143 -384.5q0 -164 72 -285t194 -181.5t279 -60.5q168 0 269 77.5t143 205.5l-46 25q-104 -189 -319 -189q-56 0 -108.5 25t-98 74.5t-75 133.5
t-35.5 191h698zM788 598h-428q0 171 64.5 262.5t159.5 91.5t149.5 -87.5t54.5 -266.5z" />
    <glyph glyph-name="ecircumflex" unicode="&#xea;" horiz-adv-x="1153" 
d="M920 1157l-275 316h-127l-274 -316l39 -47l299 180l299 -180zM1063 520q0 123 -37.5 221t-101 159.5t-144.5 93.5t-172 32q-232 0 -375 -137.5t-143 -384.5q0 -164 72 -285t194 -181.5t279 -60.5q168 0 269 77.5t143 205.5l-46 25q-104 -189 -319 -189q-56 0 -108.5 25
t-98 74.5t-75 133.5t-35.5 191h698zM788 598h-428q0 171 64.5 262.5t159.5 91.5t149.5 -87.5t54.5 -266.5z" />
    <glyph glyph-name="edieresis" unicode="&#xeb;" horiz-adv-x="1153" 
d="M846 1303q0 41 -30.5 70.5t-72.5 29.5q-41 0 -70.5 -29.5t-29.5 -70.5q0 -43 29.5 -72t70.5 -29q42 0 72.5 29.5t30.5 71.5zM512 1303q0 41 -30.5 70.5t-71.5 29.5q-40 0 -70.5 -29.5t-30.5 -70.5q0 -42 30.5 -71.5t70.5 -29.5q42 0 72 29.5t30 71.5zM1061 520
q0 123 -36.5 221t-100 159.5t-143.5 93.5t-171 32q-232 0 -374 -137t-142 -385q0 -164 71 -284.5t193 -181.5t279 -61q314 0 407 283l-45 25q-104 -189 -315 -189q-56 0 -109.5 25t-99.5 74.5t-76.5 133.5t-36.5 191h699zM793 598h-435q0 171 66 262.5t162 91.5
q95 0 151 -87.5t56 -266.5z" />
    <glyph glyph-name="igrave" unicode="&#xec;" horiz-adv-x="526" 
d="M567 1165l-436 320l-178 -209l567 -174zM391 0v1028l-256 -39v-989h256z" />
    <glyph glyph-name="iacute" unicode="&#xed;" horiz-adv-x="526" 
d="M567 1276l-180 209l-434 -320l47 -63zM391 0v1028l-256 -39v-989h256z" />
    <glyph glyph-name="icircumflex" unicode="&#xee;" horiz-adv-x="526" 
d="M602 1157l-274 316h-127l-273 -316l39 -47l297 180l299 -180zM391 0v1028l-256 -39v-989h256z" />
    <glyph glyph-name="idieresis" unicode="&#xef;" horiz-adv-x="526" 
d="M535 1303q0 41 -30.5 70.5t-72.5 29.5q-41 0 -70.5 -29.5t-29.5 -70.5q0 -43 29 -72t71 -29t72.5 29.5t30.5 71.5zM201 1303q0 41 -30.5 70.5t-72.5 29.5q-40 0 -69 -29.5t-29 -70.5q0 -42 29 -71.5t69 -29.5q42 0 72.5 29.5t30.5 71.5zM391 0v1028l-256 -39v-989h256z
" />
    <glyph glyph-name="eth" unicode="&#xf0;" horiz-adv-x="1343" 
d="M1198 600q0 267 -93 465.5t-241 320.5l195 107l-51 84l-236 -129q-108 61 -242 87t-251 26h-33l-25 -60q101 -16 204 -54.5t177 -92.5l-336 -185l51 -84l369 203q112 -102 178 -303q-90 41 -198 41q-122 0 -223 -40.5t-168 -111.5t-103.5 -166t-36.5 -204
q0 -110 35 -205.5t100 -167t165 -113t222 -41.5q105 0 193.5 33.5t152 92t108 137.5t66 170t21.5 190zM940 557q0 -127 -33 -242t-99 -190.5t-149 -75.5q-128 0 -197 102.5t-69 290.5q0 129 30.5 243t94 190.5t146.5 76.5q129 0 202.5 -104t73.5 -291z" />
    <glyph glyph-name="ntilde" unicode="&#xf1;" horiz-adv-x="1161" 
d="M934 1409q-81 -100 -191 -100q-29 0 -67.5 20t-71.5 43.5t-80.5 43.5t-91.5 20q-106 0 -178 -56l-23 -192q44 53 89 76.5t102 23.5q29 0 67.5 -20t71.5 -43.5t80.5 -43.5t91.5 -20q110 0 178 56zM1030 0v670q0 181 -80.5 268.5t-269.5 87.5q-94 0 -174.5 -40t-126.5 -93
v133l-248 -37v-989h256v788q40 56 97 91.5t122 35.5q168 0 168 -241v-674h256z" />
    <glyph glyph-name="ograve" unicode="&#xf2;" horiz-adv-x="1239" 
d="M930 1165l-436 320l-181 -209l570 -174zM1149 504q0 146 -63 264t-186 188t-286 70q-162 0 -283 -72.5t-181 -191.5t-60 -266q0 -224 144.5 -371.5t388.5 -147.5q122 0 222.5 41.5t166.5 113t101.5 167.5t35.5 205zM885 442q0 -189 -68 -291t-196 -102q-83 0 -145.5 76
t-92 189.5t-29.5 242.5q0 189 67 292t195 103q83 0 146 -76.5t93 -190.5t30 -243z" />
    <glyph glyph-name="oacute" unicode="&#xf3;" horiz-adv-x="1239" 
d="M920 1276l-181 209l-436 -320l47 -63zM1149 504q0 146 -63 264t-186 188t-286 70q-162 0 -283 -72.5t-181 -191.5t-60 -266q0 -224 144.5 -371.5t388.5 -147.5q122 0 222.5 41.5t166.5 113t101.5 167.5t35.5 205zM885 442q0 -189 -68 -291t-196 -102q-83 0 -145.5 76
t-92 189.5t-29.5 242.5q0 189 67 292t195 103q83 0 146 -76.5t93 -190.5t30 -243z" />
    <glyph glyph-name="ocircumflex" unicode="&#xf4;" horiz-adv-x="1239" 
d="M956 1157l-274 316h-127l-274 -316l38 -47l299 180l300 -180zM1149 504q0 146 -63 264t-186 188t-286 70q-162 0 -283 -72.5t-181 -191.5t-60 -266q0 -224 144.5 -371.5t388.5 -147.5q122 0 222.5 41.5t166.5 113t101.5 167.5t35.5 205zM885 442q0 -189 -68 -291
t-196 -102q-83 0 -145.5 76t-92 189.5t-29.5 242.5q0 189 67 292t195 103q83 0 146 -76.5t93 -190.5t30 -243z" />
    <glyph glyph-name="otilde" unicode="&#xf5;" horiz-adv-x="1239" 
d="M971 1409q-81 -100 -191 -100q-29 0 -67.5 20t-71.5 43.5t-80.5 43.5t-91.5 20q-106 0 -178 -56l-23 -192q44 53 89 76.5t102 23.5q29 0 67.5 -20t71.5 -43.5t80.5 -43.5t91.5 -20q110 0 178 56zM1149 504q0 146 -63 264t-186 188t-286 70q-162 0 -283 -72.5t-181 -191.5
t-60 -266q0 -224 144.5 -371.5t388.5 -147.5q122 0 222.5 41.5t166.5 113t101.5 167.5t35.5 205zM885 442q0 -189 -68 -291t-196 -102q-83 0 -145.5 76t-92 189.5t-29.5 242.5q0 189 67 292t195 103q83 0 146 -76.5t93 -190.5t30 -243z" />
    <glyph glyph-name="odieresis" unicode="&#xf6;" horiz-adv-x="1239" 
d="M887 1303q0 41 -30.5 70.5t-72.5 29.5q-41 0 -70.5 -29.5t-29.5 -70.5q0 -43 29 -72t71 -29t72.5 29.5t30.5 71.5zM553 1303q0 41 -30.5 70.5t-71.5 29.5q-40 0 -70.5 -29.5t-30.5 -70.5q0 -42 30.5 -71.5t70.5 -29.5q42 0 72 29.5t30 71.5zM1149 504q0 146 -63 264
t-186 188t-286 70q-162 0 -283 -72.5t-181 -191.5t-60 -266q0 -224 144.5 -371.5t388.5 -147.5q122 0 222.5 41.5t166.5 113t101.5 167.5t35.5 205zM885 442q0 -189 -68 -291t-196 -102q-83 0 -145.5 76t-92 189.5t-29.5 242.5q0 189 67 292t195 103q83 0 146 -76.5
t93 -190.5t30 -243z" />
    <glyph glyph-name="divide" unicode="&#xf7;" horiz-adv-x="2048" 
d="M1174 1282q0 66 -43.5 111t-106.5 45t-106.5 -45t-43.5 -111t43.5 -112t106.5 -46t106.5 46t43.5 112zM1739 715v106h-1432v-106h1432zM1174 256q0 66 -43.5 111t-106.5 45t-106.5 -45t-43.5 -111t43.5 -112t106.5 -46t106.5 46t43.5 112z" />
    <glyph glyph-name="oslash" unicode="&#xf8;" horiz-adv-x="1239" 
d="M1149 504q0 221 -141 368l141 156l-68 68l-147 -162q-131 92 -320 92q-162 0 -283 -72.5t-181 -191.5t-60 -266q0 -211 123 -349l-119 -129l68 -65l121 129q133 -105 340 -105q122 0 222.5 41.5t166.5 113t101.5 167.5t35.5 205zM811 801l-430 -471q-27 108 -27 227
q0 189 67 292t195 103q120 0 195 -151zM885 442q0 -189 -68 -291t-196 -102q-67 0 -119 47.5t-86 130.5l434 473q35 -119 35 -258z" />
    <glyph glyph-name="ugrave" unicode="&#xf9;" horiz-adv-x="1159" 
d="M905 1165l-436 320l-180 -209l569 -174zM1030 0v1026l-256 -37v-776q-40 -56 -97 -91.5t-122 -35.5q-168 0 -168 242v698l-256 -37v-657q0 -182 77.5 -268.5t266.5 -86.5q95 0 179.5 40t127.5 92v-109h248z" />
    <glyph glyph-name="uacute" unicode="&#xfa;" horiz-adv-x="1159" 
d="M893 1276l-180 209l-437 -320l48 -63zM1030 0v1026l-256 -37v-776q-40 -56 -97 -91.5t-122 -35.5q-168 0 -168 242v698l-256 -37v-657q0 -182 77.5 -268.5t266.5 -86.5q95 0 179.5 40t127.5 92v-109h248z" />
    <glyph glyph-name="ucircumflex" unicode="&#xfb;" horiz-adv-x="1159" 
d="M918 1157l-275 316h-127l-274 -316l39 -47l299 180l299 -180zM1030 0v1026l-256 -37v-776q-40 -56 -97 -91.5t-122 -35.5q-168 0 -168 242v698l-256 -37v-657q0 -182 77.5 -268.5t266.5 -86.5q95 0 179.5 40t127.5 92v-109h248z" />
    <glyph glyph-name="udieresis" unicode="&#xfc;" horiz-adv-x="1159" 
d="M850 1303q0 41 -30.5 70.5t-71.5 29.5t-71 -29.5t-30 -70.5q0 -42 29.5 -71.5t71.5 -29.5t72 29.5t30 71.5zM516 1303q0 41 -30.5 70.5t-71.5 29.5q-40 0 -70.5 -29.5t-30.5 -70.5q0 -42 30.5 -71.5t70.5 -29.5q42 0 72 29.5t30 71.5zM1030 0v1026l-256 -37v-776
q-40 -56 -97 -91.5t-122 -35.5q-168 0 -168 242v698l-256 -37v-657q0 -182 77.5 -268.5t266.5 -86.5q95 0 179.5 40t127.5 92v-109h248z" />
    <glyph glyph-name="yacute" unicode="&#xfd;" horiz-adv-x="993" 
d="M795 1276l-181 209l-436 -320l47 -63zM1001 989h-137q-38 -110 -121.5 -325t-140.5 -347l-323 672h-295l493 -950q-85 -220 -194 -277q-62 -30 -168 -30q-90 0 -142 24l21 -139q95 0 186 16.5t144 42.5q146 71 264 347q311 741 413 966z" />
    <glyph glyph-name="thorn" unicode="&#xfe;" horiz-adv-x="1216" 
d="M1128 530q0 119 -37 216t-98.5 156.5t-136.5 91.5t-154 32q-112 0 -203.5 -35t-127.5 -94v702l-240 -38v-2038h256v536q93 -82 303 -82q134 0 235 75t152 199.5t51 278.5zM866 463q0 -192 -73 -303t-207 -111q-54 0 -118.5 44.5t-88.5 101.5v505q0 92 63 155t144 63
q134 0 207 -111.5t73 -343.5z" />
    <glyph glyph-name="ydieresis" unicode="&#xff;" horiz-adv-x="993" 
d="M760 1303q0 41 -30.5 70.5t-72.5 29.5q-41 0 -70.5 -29.5t-29.5 -70.5q0 -43 29.5 -72t70.5 -29q42 0 72.5 29.5t30.5 71.5zM426 1303q0 41 -30.5 70.5t-71.5 29.5q-40 0 -70.5 -29.5t-30.5 -70.5q0 -42 30.5 -71.5t70.5 -29.5q42 0 72 29.5t30 71.5zM1001 989h-137
q-38 -110 -121.5 -325t-140.5 -347l-323 672h-295l493 -950q-85 -220 -194 -277q-62 -30 -168 -30q-90 0 -142 24l21 -139q95 0 186 16.5t144 42.5q146 71 264 347q311 741 413 966z" />
    <glyph glyph-name="dotlessi" unicode="&#x131;" horiz-adv-x="526" 
d="M391 0v1028l-256 -39v-989h256z" />
    <glyph glyph-name="Lslash" unicode="&#x141;" horiz-adv-x="1193" 
d="M1124 0v147q-269 -41 -661 -41v728l215 174v168l-215 -177v514h-291v-751l-147 -119v-164l147 119v-598h952z" />
    <glyph glyph-name="lslash" unicode="&#x142;" horiz-adv-x="530" 
d="M500 954v168l-105 -86v559l-260 -36v-738l-102 -84v-164l102 84v-657h260v868z" />
    <glyph glyph-name="OE" unicode="&#x152;" horiz-adv-x="1845" 
d="M1739 0v147q-241 -41 -604 -41v656q209 0 417 -21v142q-215 -21 -417 -21v555q346 0 528 -31v138q-271 -11 -666 -11v5q-95 30 -209 30q-204 0 -355 -99t-230.5 -278t-79.5 -417q0 -360 178.5 -574.5t486.5 -214.5q111 0 209 31v4h742zM885 68q-46 -15 -97 -15
q-106 0 -198.5 99.5t-147.5 276t-55 386.5q0 156 32 281t88 202.5t127.5 118.5t153.5 41q45 0 97 -20v-1370z" />
    <glyph glyph-name="oe" unicode="&#x153;" horiz-adv-x="1839" 
d="M1714 520q0 123 -33 221t-89.5 159.5t-128.5 93.5t-154 32q-110 0 -202 -41t-155 -119q-131 160 -356 160q-146 0 -254.5 -72.5t-162.5 -191.5t-54 -266q0 -146 56 -263t166 -186.5t257 -69.5q225 0 354 164q132 -164 375 -164q150 0 240 77.5t127 205.5l-41 25
q-93 -189 -283 -189q-51 0 -99 25t-89.5 74.5t-69 133.5t-33.5 191h629zM1473 598h-390q0 171 59 262.5t144 91.5q87 0 137 -87.5t50 -266.5zM842 442q0 -188 -62.5 -290.5t-177.5 -102.5q-76 0 -133 76t-84 189.5t-27 242.5q0 189 62 292t178 103q75 0 132 -76.5
t84.5 -190.5t27.5 -243z" />
    <glyph glyph-name="Scaron" unicode="&#x160;" horiz-adv-x="1339" 
d="M1008 1905l-39 47l-299 -180l-299 180l-39 -47l274 -316h127zM1239 399q0 178 -121.5 297t-394.5 219q-121 44 -193 79.5t-110.5 74.5t-50 76.5t-11.5 95.5q0 44 14.5 80.5t47 67.5t93.5 48t146 17q227 0 416 -174l45 158q-218 110 -483 110q-269 0 -401 -109.5
t-132 -291.5q0 -154 101 -266.5t344 -198.5q230 -82 324 -167t94 -193q0 -118 -88 -185t-273 -67q-139 0 -266.5 52.5t-198.5 143.5l-61 -157q109 -61 253 -102.5t288 -41.5q307 0 462.5 115.5t155.5 318.5z" />
    <glyph glyph-name="scaron" unicode="&#x161;" horiz-adv-x="1044" 
d="M860 1430l-39 47l-299 -181l-299 181l-39 -47l275 -316h127zM956 289q0 123 -91.5 197.5t-280.5 134.5q-155 48 -214 89.5t-59 106.5q0 127 187 127q100 0 197 -57t132 -137l78 133q-60 56 -169.5 99.5t-260.5 43.5q-166 0 -274.5 -83t-108.5 -208q0 -110 64.5 -177
t195.5 -107q116 -35 189.5 -66.5t108.5 -61.5t46 -54.5t11 -57.5q0 -74 -56 -111t-178 -37q-87 0 -193 47t-155 117l-76 -139q73 -46 194 -78.5t249 -32.5q464 0 464 312z" />
    <glyph glyph-name="Ydieresis" unicode="&#x178;" horiz-adv-x="1146" 
d="M840 1745q0 41 -30.5 70.5t-72.5 29.5q-41 0 -70.5 -29.5t-29.5 -70.5q0 -42 29 -71t71 -29t72.5 29t30.5 71zM506 1745q0 41 -30.5 70.5t-72.5 29.5q-40 0 -70 -29.5t-30 -70.5q0 -42 30 -71t70 -29q42 0 72.5 29t30.5 71zM1159 1513h-147q-50 -119 -165 -364t-183 -377
l-349 741h-329l463 -878v-635h280v649q186 396 430 864z" />
    <glyph glyph-name="Zcaron" unicode="&#x17d;" horiz-adv-x="1316" 
d="M995 1905l-39 47l-299 -180l-299 180l-39 -47l275 -316h127zM1237 1513q-853 3 -1108 11v-138q253 31 731 31l-809 -1417h1166v156q-248 -50 -773 -50z" />
    <glyph glyph-name="zcaron" unicode="&#x17e;" horiz-adv-x="1044" 
d="M860 1430l-39 47l-299 -181l-299 181l-39 -47l275 -316h127zM991 989h-291h-223q-246 4 -350 12v-112q106 12 510 12l-598 -901h946v121q-84 -16 -189 -23.5t-180.5 -8.5t-224.5 -1z" />
  </font>
</defs>
</svg>
