<svg xmlns="http://www.w3.org/2000/svg" width="224.056" height="450.998" viewBox="0 0 224.056 450.998"><g transform="translate(-258.944 -106.892)"><path d="M295,239.89s4.433-79.086,102-103c13.712-1.882,14.608,9.165,9,22s-17.421,37.711-35,54-81.9,70.826-88,81-25.222,28.832-24,80,30.642,94.259,90,101c14.558.528,41.447-5.766,54-26,.044-.088-24.478,13.323-44,12s-73.92-13.448-72-86c7.761-59.411,16.936-59.73,35-85,21.471-21.62,58-65,58-65s13.823-19.373,25-38,16.4-30.816,19-52c2.367-19.3-1.524-24.347-21-27-14.849-2.169-24.561-.15-29,0C324.091,109.576,271.717,181.252,295,239.89Z" fill="#f25a01" fill-rule="evenodd"/><path d="M380,405.89c1.612,10.428-7.537,16.533-19,17-13.588-.257-35.891-10.666-35-46,.619-17.2,8.8-66.84,62-65,16.621.781,56.389,12.766,54,74-1.277,32.74-6.626,57.857-15.539,77.4S399.769,513.023,353,557.89c0,0,129.487-58.361,130-174-1.437-25.536-11.645-90.689-91-91-15.868-.33-77.493,4.572-83,79-.018,16.794,1.5,61.436,47,65,46.147,3.614,61.28-52.254,51-65-5.392-10.469-15.984-16.165-26-15-14.862,1.728-24.2,17.938-21.77,30.562,1.519,7.908,8.012,16.464,13.77,16.438a19.161,19.161,0,0,0,4.332-.2C379.483,403.334,379.341,404.37,380,405.89Z" fill="#f25a01" fill-rule="evenodd"/></g></svg>