<svg xmlns="http://www.w3.org/2000/svg" viewBox="0 0 1024 1024" width="1em" height="1em" fill="currentColor"><path d="M867.42 189.606c-61.043-28.737-131.956-51.333-206.189-64.264l-5.063-0.73c-8.438 14.627-17.494 32.694-25.606 51.269l-1.455 3.739c-35.23-5.589-75.854-8.782-117.222-8.782s-81.994 3.193-121.638 9.347l4.414-0.564c-9.577-22.324-18.633-40.392-28.569-57.894l1.508 2.887c-79.384 13.781-150.342 36.425-216.66 67.353l5.247-2.197c-133.694 197.803-169.937 390.692-151.814 580.845v0c74.016 55.223 160.127 99.583 253.058 128.455l6.032 1.613c19.479-25.913 37.904-55.205 53.849-85.992l1.642-3.487c-33.835-12.748-62.627-26.785-89.891-43.109l2.507 1.391c7.328-5.316 14.497-10.792 21.423-16.108 75.861 36.523 164.945 57.864 259.010 57.864s183.151-21.341 262.673-59.444l-3.661 1.58c7.007 5.718 14.175 11.195 21.423 16.108-24.8 14.956-53.645 29.018-83.753 40.526l-3.792 1.273c17.553 34.233 35.979 63.498 56.638 90.994l-1.147-1.595c99.031-30.361 185.209-74.707 261.495-131.587l-2.242 1.598c21.263-220.514-36.322-411.632-152.217-581.087zM341.906 653.669c-50.497 0-92.217-45.825-92.217-102.204s40.269-102.609 92.056-102.609 93.182 46.229 92.297 102.609-40.671 102.204-92.137 102.204zM682.101 653.669c-50.578 0-92.137-45.825-92.137-102.204s40.269-102.609 92.137-102.609 92.941 46.229 92.056 102.609-40.591 102.204-92.056 102.204z" /></svg>
