<svg xmlns="http://www.w3.org/2000/svg" viewBox="0 0 1024 1024" width="1em" height="1em" fill="currentColor"><path d="M511.993 12.645c-282.868 0-511.978 229.11-511.978 511.978 0 226.55 146.554 417.902 350.065 485.739 25.599 4.48 35.198-10.88 35.198-24.319 0-12.159-0.64-52.478-0.64-95.356-128.634 23.679-161.913-31.359-172.152-60.157-5.76-14.719-30.719-60.157-52.478-72.317-17.919-9.6-43.518-33.279-0.64-33.919 40.318-0.64 69.117 37.118 78.717 52.478 46.078 77.437 119.675 55.678 149.113 42.238 4.48-33.279 17.919-55.678 32.639-68.477-113.915-12.799-232.95-56.958-232.95-252.789 0-55.678 19.839-101.756 52.478-137.594-5.12-12.799-23.039-65.277 5.12-135.674 0 0 42.878-13.439 140.794 52.478 40.958-11.519 84.476-17.279 127.994-17.279s87.036 5.76 127.994 17.279c97.916-66.557 140.794-52.478 140.794-52.478 28.159 70.397 10.24 122.875 5.12 135.674 32.639 35.838 52.478 81.276 52.478 137.594 0 196.471-119.675 239.99-233.59 252.789 18.559 15.999 34.558 46.718 34.558 94.716 0 68.477-0.64 123.515-0.64 140.794 0 13.439 9.6 29.439 35.198 24.319 202.231-67.837 348.785-259.829 348.785-485.739 0-282.868-229.11-511.978-511.978-511.978z" /></svg>
