<svg xmlns="http://www.w3.org/2000/svg" viewBox="0 0 1024 1024" width="1em" height="1em" fill="currentColor"><path d="M325.399 9.396c-98.059 49.248-190.865 155.102-226.567 258.419-129.641 375.169 305.172 674.583 615.886 424.1 20.105-16.206 59.166-55.393 69.241-69.459 8.29-11.579 9.393-11.089 6.232 2.774-45.764 200.848-267.83 380.060-474.029 382.552l-13.883 0.169 14.796 3.425c319.272 73.959 631.633-187.216 631.596-528.095-0.024-239.72-117.007-385.368-290.485-361.661-165.748 22.651-236.72 227.825-109.866 317.604l5.606 3.967-5.207-15.565c-37.187-111.179 11.144-201.312 107.74-200.928 89.119 0.352 144.552 78.056 152.699 214.045l1.218 20.343-11.532 16.149c-166.692 233.451-511.386 191.924-603.837-72.748-51.674-147.934-5.479-287.117 128.541-387.277 28.827-21.543 28.778-21.339 1.85-7.815z" /></svg>
