<svg xmlns="http://www.w3.org/2000/svg" viewBox="0 0 1024 1024" width="1em" height="1em" fill="currentColor"><path d="M211.453 964.214c-31.546-5.082-80.601-22.922-80.601-29.312 0-3.167 2.113-3.362 10.412-0.958 115.581 33.468 244.133-80.941 232.22-206.674-18.25-192.6-277.354-240.56-365.482-67.649-7.238 14.201-10.161 10.196-6.222-8.528 28.242-134.256 174.592-227.49 308.475-196.517 24.864 5.752 23.675 6.049 14.442-3.601-101.111-105.672-93.665-281.937 15.896-376.335 21.219-18.282 26.389-17.195 13.2 2.776-115.864 175.435 75.234 378.597 257.84 274.119 98.177-56.172 123.545-194.033 51.893-282.002-20.493-25.16 5.599-11.722 34.659 17.85 96.241 97.936 99.574 256.223 7.547 358.47-13.891 15.434-14.999 14.581 10.995 8.476 117.33-27.558 250.438 44.599 294.775 159.795 13.633 35.42 17.332 69.938 4.878 45.5-88.229-173.108-345.608-125.2-365.436 68.021-12.689 123.643 106.787 232.759 226.986 207.304 21.848-4.627 22.424-0.502 1.301 9.316-148.725 69.125-336.25-22.242-362.468-176.605l-2.232-13.136-1.217 7.799c-20.205 129.579-162.010 224.423-301.86 201.893z" /></svg>
